<svg xmlns="http://www.w3.org/2000/svg" xmlns:xlink="http://www.w3.org/1999/xlink" width="1080" zoomAndPan="magnify" viewBox="0 0 810 269.999989" height="360" preserveAspectRatio="xMidYMid meet" version="1.0"><defs><g/></defs><g fill="#000000" fill-opacity="1"><g transform="translate(115.850699, 136.404129)"><g><path d="M 5.765625 -72.96875 C 5.765625 -77.445312 7.09375 -81.570312 9.75 -85.34375 C 12.40625 -89.125 16.289062 -92.164062 21.40625 -94.46875 C 26.53125 -96.78125 32.773438 -97.9375 40.140625 -97.9375 C 46.023438 -97.9375 51.128906 -97.519531 55.453125 -96.6875 C 59.773438 -95.851562 63.789062 -94.796875 67.5 -93.515625 L 67.5 -80.65625 L 66.53125 -80.65625 C 66.53125 -80.65625 66.273438 -81.195312 65.765625 -82.28125 C 65.253906 -83.375 64.390625 -84.71875 63.171875 -86.3125 C 61.960938 -87.914062 60.347656 -89.515625 58.328125 -91.109375 C 56.316406 -92.710938 53.804688 -94.054688 50.796875 -95.140625 C 47.785156 -96.234375 44.234375 -96.78125 40.140625 -96.78125 C 34.179688 -96.78125 29.132812 -95.722656 25 -93.609375 C 20.875 -91.503906 17.753906 -88.816406 15.640625 -85.546875 C 13.535156 -82.285156 12.484375 -78.863281 12.484375 -75.28125 C 12.484375 -72.007812 13.332031 -69.222656 15.03125 -66.921875 C 16.726562 -64.617188 19.03125 -62.632812 21.9375 -60.96875 C 24.851562 -59.300781 28.101562 -57.828125 31.6875 -56.546875 C 35.269531 -55.273438 38.976562 -54 42.8125 -52.71875 C 46.65625 -51.4375 50.367188 -50.039062 53.953125 -48.53125 C 57.546875 -47.03125 60.796875 -45.222656 63.703125 -43.109375 C 66.617188 -40.992188 68.921875 -38.445312 70.609375 -35.46875 C 72.304688 -32.5 73.15625 -28.898438 73.15625 -24.671875 C 73.15625 -21.347656 72.320312 -18.097656 70.65625 -14.921875 C 69 -11.753906 66.601562 -8.90625 63.46875 -6.375 C 60.332031 -3.851562 56.554688 -1.835938 52.140625 -0.328125 C 47.722656 1.171875 42.726562 1.921875 37.15625 1.921875 C 32.9375 1.921875 28.90625 1.3125 25.0625 0.09375 C 21.21875 -1.125 17.695312 -2.644531 14.5 -4.46875 C 11.300781 -6.289062 8.515625 -8.066406 6.140625 -9.796875 L 6.140625 -22.65625 L 7.109375 -22.65625 C 7.109375 -22.65625 7.601562 -21.882812 8.59375 -20.34375 C 9.582031 -18.8125 11.050781 -16.910156 13 -14.640625 C 14.957031 -12.367188 17.359375 -10.097656 20.203125 -7.828125 C 23.054688 -5.554688 26.351562 -3.648438 30.09375 -2.109375 C 33.84375 -0.578125 37.988281 0.1875 42.53125 0.1875 C 46.050781 0.1875 49.332031 -0.382812 52.375 -1.53125 C 55.414062 -2.6875 58.070312 -4.253906 60.34375 -6.234375 C 62.613281 -8.222656 64.390625 -10.460938 65.671875 -12.953125 C 66.953125 -15.453125 67.59375 -18.046875 67.59375 -20.734375 C 67.59375 -24.316406 66.726562 -27.40625 65 -30 C 63.269531 -32.59375 60.929688 -34.816406 57.984375 -36.671875 C 55.046875 -38.535156 51.734375 -40.203125 48.046875 -41.671875 C 44.367188 -43.140625 40.578125 -44.546875 36.671875 -45.890625 C 32.773438 -47.234375 28.984375 -48.671875 25.296875 -50.203125 C 21.617188 -51.742188 18.304688 -53.519531 15.359375 -55.53125 C 12.421875 -57.550781 10.085938 -59.984375 8.359375 -62.828125 C 6.628906 -65.679688 5.765625 -69.0625 5.765625 -72.96875 Z M 5.765625 -72.96875 "/></g></g></g><g fill="#000000" fill-opacity="1"><g transform="translate(204.538808, 136.404129)"><g><path d="M 2.875 -95.0625 L 2.875 -96.015625 L 28.8125 -96.015625 L 28.8125 -95.0625 C 26.050781 -95.0625 24.046875 -94.226562 22.796875 -92.5625 C 21.554688 -90.894531 20.773438 -88.1875 20.453125 -84.4375 C 20.128906 -80.695312 19.96875 -75.660156 19.96875 -69.328125 L 19.96875 -26.6875 C 19.96875 -20.414062 20.128906 -15.390625 20.453125 -11.609375 C 20.773438 -7.835938 21.554688 -5.117188 22.796875 -3.453125 C 24.046875 -1.785156 26.050781 -0.953125 28.8125 -0.953125 L 28.8125 0 L 2.875 0 L 2.875 -0.953125 C 5.632812 -0.953125 7.632812 -1.785156 8.875 -3.453125 C 10.125 -5.117188 10.910156 -7.835938 11.234375 -11.609375 C 11.554688 -15.390625 11.71875 -20.414062 11.71875 -26.6875 L 11.71875 -69.328125 C 11.71875 -75.660156 11.554688 -80.695312 11.234375 -84.4375 C 10.910156 -88.1875 10.125 -90.894531 8.875 -92.5625 C 7.632812 -94.226562 5.632812 -95.0625 2.875 -95.0625 Z M 2.875 -95.0625 "/></g></g></g><g fill="#000000" fill-opacity="1"><g transform="translate(246.005821, 136.404129)"><g><path d="M 2.875 -96.015625 L 28.8125 -96.015625 L 28.8125 -95.0625 C 26.050781 -95.0625 24.046875 -94.226562 22.796875 -92.5625 C 21.554688 -90.894531 20.773438 -88.1875 20.453125 -84.4375 C 20.128906 -80.695312 19.96875 -75.660156 19.96875 -69.328125 L 19.96875 -0.953125 L 32.171875 -0.953125 C 33.703125 -0.953125 35.695312 -1 38.15625 -1.09375 C 40.625 -1.195312 43.296875 -1.40625 46.171875 -1.71875 C 49.054688 -2.039062 51.921875 -2.535156 54.765625 -3.203125 C 57.617188 -3.878906 60.242188 -4.757812 62.640625 -5.84375 C 65.046875 -6.9375 66.96875 -8.300781 68.40625 -9.9375 C 69.851562 -11.570312 70.578125 -13.539062 70.578125 -15.84375 L 71.53125 -15.84375 L 71.53125 0 L 2.875 0 L 2.875 -0.953125 C 5.632812 -0.953125 7.632812 -1.785156 8.875 -3.453125 C 10.125 -5.117188 10.910156 -7.835938 11.234375 -11.609375 C 11.554688 -15.390625 11.71875 -20.414062 11.71875 -26.6875 L 11.71875 -69.328125 C 11.71875 -75.660156 11.554688 -80.695312 11.234375 -84.4375 C 10.910156 -88.1875 10.125 -90.894531 8.875 -92.5625 C 7.632812 -94.226562 5.632812 -95.0625 2.875 -95.0625 Z M 2.875 -96.015625 "/></g></g></g><g fill="#000000" fill-opacity="1"><g transform="translate(330.182967, 136.404129)"><g><path d="M 0 -95.0625 L 0 -96.015625 L 31.5 -96.015625 L 31.5 -95.0625 C 28.101562 -95.0625 25.523438 -94.609375 23.765625 -93.703125 C 22.003906 -92.804688 20.867188 -91.554688 20.359375 -89.953125 C 19.847656 -88.359375 19.78125 -86.503906 20.15625 -84.390625 C 20.539062 -82.285156 21.179688 -80.015625 22.078125 -77.578125 L 48.015625 -9.21875 C 51.972656 -20.550781 56.097656 -31.878906 60.390625 -43.203125 C 64.679688 -54.535156 68.679688 -65.898438 72.390625 -77.296875 C 73.035156 -79.210938 73.453125 -81.210938 73.640625 -83.296875 C 73.835938 -85.378906 73.613281 -87.296875 72.96875 -89.046875 C 72.332031 -90.804688 71.117188 -92.25 69.328125 -93.375 C 67.535156 -94.5 64.941406 -95.0625 61.546875 -95.0625 L 61.546875 -96.015625 L 88.71875 -96.015625 L 88.71875 -95.0625 C 85.769531 -95.0625 83.351562 -93.75 81.46875 -91.125 C 79.582031 -88.5 77.613281 -84.53125 75.5625 -79.21875 L 44.84375 1.921875 L 43.875 1.921875 L 13.15625 -79.21875 C 11.039062 -84.53125 9.054688 -88.5 7.203125 -91.125 C 5.347656 -93.75 2.945312 -95.0625 0 -95.0625 Z M 0 -95.0625 "/></g></g></g><g fill="#000000" fill-opacity="1"><g transform="translate(428.660791, 136.404129)"><g><path d="M 2.875 -16.796875 C 2.875 -20.765625 3.800781 -24.332031 5.65625 -27.5 C 7.519531 -30.675781 9.90625 -33.554688 12.8125 -36.140625 C 15.726562 -38.734375 18.816406 -41.101562 22.078125 -43.25 C 25.347656 -45.394531 28.4375 -47.378906 31.34375 -49.203125 C 34.257812 -51.023438 36.644531 -52.769531 38.5 -54.4375 C 40.351562 -56.101562 41.28125 -57.769531 41.28125 -59.4375 C 41.28125 -60.332031 41.054688 -60.988281 40.609375 -61.40625 C 40.160156 -61.820312 39.617188 -62.03125 38.984375 -62.03125 C 37.828125 -62.03125 36.753906 -61.515625 35.765625 -60.484375 C 34.773438 -59.460938 33.796875 -58.296875 32.828125 -56.984375 C 31.867188 -55.671875 30.828125 -54.5 29.703125 -53.46875 C 28.585938 -52.445312 27.359375 -51.9375 26.015625 -51.9375 C 24.671875 -51.9375 23.851562 -52.476562 23.5625 -53.5625 C 23.28125 -54.65625 23.363281 -55.8125 23.8125 -57.03125 C 25.28125 -60.875 26.625 -64.441406 27.84375 -67.734375 C 29.0625 -71.035156 30.257812 -74.238281 31.4375 -77.34375 C 32.625 -80.445312 33.84375 -83.660156 35.09375 -86.984375 C 36.34375 -90.316406 37.734375 -93.96875 39.265625 -97.9375 L 40.234375 -97.9375 L 70.953125 -16.796875 C 73.066406 -11.546875 75.050781 -7.59375 76.90625 -4.9375 C 78.757812 -2.28125 81.160156 -0.953125 84.109375 -0.953125 L 84.109375 0 L 52.609375 0 L 52.609375 -0.953125 C 56.003906 -0.953125 58.582031 -1.398438 60.34375 -2.296875 C 62.101562 -3.203125 63.238281 -4.453125 63.75 -6.046875 C 64.257812 -7.648438 64.320312 -9.503906 63.9375 -11.609375 C 63.5625 -13.722656 62.925781 -16 62.03125 -18.4375 L 50.125 -49.828125 C 50.507812 -46.753906 50.703125 -42.914062 50.703125 -38.3125 C 50.703125 -30.5625 49.5 -23.644531 47.09375 -17.5625 C 44.695312 -11.488281 41.238281 -6.722656 36.71875 -3.265625 C 32.207031 0.191406 26.753906 1.921875 20.359375 1.921875 C 16.640625 1.921875 13.484375 1.054688 10.890625 -0.671875 C 8.304688 -2.398438 6.320312 -4.6875 4.9375 -7.53125 C 3.5625 -10.382812 2.875 -13.472656 2.875 -16.796875 Z M 11.046875 -18.625 C 11.046875 -14.144531 12.390625 -10.367188 15.078125 -7.296875 C 17.765625 -4.222656 21.441406 -2.6875 26.109375 -2.6875 C 30.148438 -2.6875 33.640625 -3.773438 36.578125 -5.953125 C 39.523438 -8.128906 41.972656 -10.976562 43.921875 -14.5 C 45.878906 -18.019531 47.335938 -21.859375 48.296875 -26.015625 C 49.253906 -30.179688 49.734375 -34.21875 49.734375 -38.125 C 49.734375 -41.707031 49.617188 -44.90625 49.390625 -47.71875 C 49.171875 -50.53125 48.613281 -53.347656 47.71875 -56.171875 L 36.109375 -86.796875 L 25.0625 -57.421875 C 24.414062 -55.753906 24.238281 -54.582031 24.53125 -53.90625 C 24.820312 -53.238281 25.347656 -52.90625 26.109375 -52.90625 C 27.203125 -52.90625 28.257812 -53.414062 29.28125 -54.4375 C 30.3125 -55.46875 31.335938 -56.632812 32.359375 -57.9375 C 33.378906 -59.25 34.445312 -60.414062 35.5625 -61.4375 C 36.6875 -62.46875 37.890625 -62.984375 39.171875 -62.984375 C 40.066406 -62.984375 40.816406 -62.675781 41.421875 -62.0625 C 42.035156 -61.457031 42.34375 -60.515625 42.34375 -59.234375 C 42.34375 -57.128906 41.585938 -55.195312 40.078125 -53.4375 C 38.578125 -51.675781 36.640625 -49.960938 34.265625 -48.296875 C 31.898438 -46.628906 29.375 -44.867188 26.6875 -43.015625 C 24 -41.160156 21.46875 -39.09375 19.09375 -36.8125 C 16.726562 -34.539062 14.796875 -31.929688 13.296875 -28.984375 C 11.796875 -26.046875 11.046875 -22.59375 11.046875 -18.625 Z M 11.046875 -18.625 "/></g></g></g><g fill="#000000" fill-opacity="1"><g transform="translate(522.531696, 136.404129)"><g><path d="M 5.765625 -72.96875 C 5.765625 -77.445312 7.09375 -81.570312 9.75 -85.34375 C 12.40625 -89.125 16.289062 -92.164062 21.40625 -94.46875 C 26.53125 -96.78125 32.773438 -97.9375 40.140625 -97.9375 C 46.023438 -97.9375 51.128906 -97.519531 55.453125 -96.6875 C 59.773438 -95.851562 63.789062 -94.796875 67.5 -93.515625 L 67.5 -80.65625 L 66.53125 -80.65625 C 66.53125 -80.65625 66.273438 -81.195312 65.765625 -82.28125 C 65.253906 -83.375 64.390625 -84.71875 63.171875 -86.3125 C 61.960938 -87.914062 60.347656 -89.515625 58.328125 -91.109375 C 56.316406 -92.710938 53.804688 -94.054688 50.796875 -95.140625 C 47.785156 -96.234375 44.234375 -96.78125 40.140625 -96.78125 C 34.179688 -96.78125 29.132812 -95.722656 25 -93.609375 C 20.875 -91.503906 17.753906 -88.816406 15.640625 -85.546875 C 13.535156 -82.285156 12.484375 -78.863281 12.484375 -75.28125 C 12.484375 -72.007812 13.332031 -69.222656 15.03125 -66.921875 C 16.726562 -64.617188 19.03125 -62.632812 21.9375 -60.96875 C 24.851562 -59.300781 28.101562 -57.828125 31.6875 -56.546875 C 35.269531 -55.273438 38.976562 -54 42.8125 -52.71875 C 46.65625 -51.4375 50.367188 -50.039062 53.953125 -48.53125 C 57.546875 -47.03125 60.796875 -45.222656 63.703125 -43.109375 C 66.617188 -40.992188 68.921875 -38.445312 70.609375 -35.46875 C 72.304688 -32.5 73.15625 -28.898438 73.15625 -24.671875 C 73.15625 -21.347656 72.320312 -18.097656 70.65625 -14.921875 C 69 -11.753906 66.601562 -8.90625 63.46875 -6.375 C 60.332031 -3.851562 56.554688 -1.835938 52.140625 -0.328125 C 47.722656 1.171875 42.726562 1.921875 37.15625 1.921875 C 32.9375 1.921875 28.90625 1.3125 25.0625 0.09375 C 21.21875 -1.125 17.695312 -2.644531 14.5 -4.46875 C 11.300781 -6.289062 8.515625 -8.066406 6.140625 -9.796875 L 6.140625 -22.65625 L 7.109375 -22.65625 C 7.109375 -22.65625 7.601562 -21.882812 8.59375 -20.34375 C 9.582031 -18.8125 11.050781 -16.910156 13 -14.640625 C 14.957031 -12.367188 17.359375 -10.097656 20.203125 -7.828125 C 23.054688 -5.554688 26.351562 -3.648438 30.09375 -2.109375 C 33.84375 -0.578125 37.988281 0.1875 42.53125 0.1875 C 46.050781 0.1875 49.332031 -0.382812 52.375 -1.53125 C 55.414062 -2.6875 58.070312 -4.253906 60.34375 -6.234375 C 62.613281 -8.222656 64.390625 -10.460938 65.671875 -12.953125 C 66.953125 -15.453125 67.59375 -18.046875 67.59375 -20.734375 C 67.59375 -24.316406 66.726562 -27.40625 65 -30 C 63.269531 -32.59375 60.929688 -34.816406 57.984375 -36.671875 C 55.046875 -38.535156 51.734375 -40.203125 48.046875 -41.671875 C 44.367188 -43.140625 40.578125 -44.546875 36.671875 -45.890625 C 32.773438 -47.234375 28.984375 -48.671875 25.296875 -50.203125 C 21.617188 -51.742188 18.304688 -53.519531 15.359375 -55.53125 C 12.421875 -57.550781 10.085938 -59.984375 8.359375 -62.828125 C 6.628906 -65.679688 5.765625 -69.0625 5.765625 -72.96875 Z M 5.765625 -72.96875 "/></g></g></g><g fill="#000000" fill-opacity="1"><g transform="translate(373.42314, 179.963869)"><g><path d="M -6.65625 41.765625 C -8.050781 41.765625 -9.15625 41.328125 -9.96875 40.453125 C -10.789062 39.578125 -11.378906 38.484375 -11.734375 37.171875 C -12.085938 35.859375 -12.265625 34.5625 -12.265625 33.28125 C -12.265625 31.40625 -11.78125 29.359375 -10.8125 27.140625 C -9.851562 24.921875 -8.582031 22.773438 -7 20.703125 C -5.425781 18.628906 -3.789062 16.835938 -2.09375 15.328125 C -1.925781 12.234375 -1.828125 9.398438 -1.796875 6.828125 C -1.765625 4.265625 -1.75 1.695312 -1.75 -0.875 C -1.75 -3.207031 -1.765625 -5.394531 -1.796875 -7.4375 C -1.828125 -9.476562 -1.867188 -11.492188 -1.921875 -13.484375 L -1.921875 -27.5 C -1.921875 -28.957031 -1.90625 -30.429688 -1.875 -31.921875 C -1.851562 -33.410156 -1.8125 -34.910156 -1.75 -36.421875 C -1.632812 -39.515625 -1.398438 -42.535156 -1.046875 -45.484375 C -0.703125 -48.429688 -0.207031 -51.25 0.4375 -53.9375 C 1.019531 -56.5625 1.894531 -58.894531 3.0625 -60.9375 C 4.113281 -62.925781 5.394531 -64.519531 6.90625 -65.71875 C 8.425781 -66.914062 10.238281 -67.515625 12.34375 -67.515625 C 15.675781 -67.515625 18.203125 -66.300781 19.921875 -63.875 C 21.640625 -61.457031 22.5 -58.410156 22.5 -54.734375 C 22.5 -51.171875 21.8125 -47.359375 20.4375 -43.296875 C 19.070312 -39.242188 17.367188 -35.144531 15.328125 -31 C 13.222656 -26.914062 10.914062 -22.945312 8.40625 -19.09375 C 5.894531 -15.238281 3.472656 -11.789062 1.140625 -8.75 C 1.191406 -8.289062 1.21875 -7.796875 1.21875 -7.265625 C 1.21875 -6.742188 1.21875 -6.25 1.21875 -5.78125 L 1.21875 -2.984375 C 1.21875 -1.515625 1.21875 -0.125 1.21875 1.1875 C 1.21875 2.5 1.21875 3.765625 1.21875 4.984375 C 1.21875 6.160156 1.203125 7.40625 1.171875 8.71875 C 1.148438 10.03125 1.109375 11.414062 1.046875 12.875 C 2.679688 11.53125 4.609375 10.066406 6.828125 8.484375 C 9.046875 6.910156 11.265625 5.394531 13.484375 3.9375 C 15.703125 2.476562 17.597656 1.222656 19.171875 0.171875 C 21.972656 -1.691406 24.597656 -3.515625 27.046875 -5.296875 C 29.503906 -7.078125 31.582031 -8.960938 33.28125 -10.953125 C 33.570312 -11.242188 33.921875 -11.390625 34.328125 -11.390625 C 34.671875 -11.390625 35.003906 -11.269531 35.328125 -11.03125 C 35.648438 -10.800781 35.8125 -10.453125 35.8125 -9.984375 C 35.8125 -9.453125 35.609375 -9.015625 35.203125 -8.671875 C 33.566406 -6.679688 31.300781 -4.617188 28.40625 -2.484375 C 25.519531 -0.359375 22.382812 1.796875 19 3.984375 C 15.613281 6.171875 12.316406 8.375 9.109375 10.59375 C 5.898438 12.8125 3.1875 14.972656 0.96875 17.078125 C 0.84375 19.640625 0.78125 22.054688 0.78125 24.328125 C 0.78125 26.609375 0.550781 29.148438 0.09375 31.953125 C -0.320312 34.460938 -1.050781 36.722656 -2.09375 38.734375 C -3.144531 40.753906 -4.664062 41.765625 -6.65625 41.765625 Z M 0.96875 -15.140625 L 0.96875 -13.578125 C 2.945312 -16.378906 5.015625 -19.457031 7.171875 -22.8125 C 9.335938 -26.164062 11.335938 -29.648438 13.171875 -33.265625 C 15.015625 -36.890625 16.519531 -40.539062 17.6875 -44.21875 C 18.851562 -47.894531 19.4375 -51.425781 19.4375 -54.8125 C 19.4375 -57.382812 18.878906 -59.644531 17.765625 -61.59375 C 16.660156 -63.550781 14.851562 -64.53125 12.34375 -64.53125 C 10.070312 -64.53125 8.25 -63.550781 6.875 -61.59375 C 5.5 -59.644531 4.460938 -57.328125 3.765625 -54.640625 C 3.359375 -53.003906 2.992188 -51.148438 2.671875 -49.078125 C 2.347656 -47.003906 2.082031 -44.957031 1.875 -42.9375 C 1.675781 -40.925781 1.519531 -39.191406 1.40625 -37.734375 C 1.226562 -35.691406 1.125 -33.851562 1.09375 -32.21875 C 1.0625 -30.582031 1.046875 -29.007812 1.046875 -27.5 L 1.046875 -21.359375 C 0.992188 -20.367188 0.96875 -19.347656 0.96875 -18.296875 C 0.96875 -17.242188 0.96875 -16.191406 0.96875 -15.140625 Z M -6.65625 38.796875 C -5.78125 38.796875 -5.050781 38.195312 -4.46875 37 C -3.882812 35.800781 -3.445312 34.238281 -3.15625 32.3125 C -2.863281 30.382812 -2.628906 28.296875 -2.453125 26.046875 C -2.273438 23.796875 -2.128906 21.59375 -2.015625 19.4375 C -3.179688 20.601562 -4.316406 21.972656 -5.421875 23.546875 C -6.535156 25.128906 -7.441406 26.75 -8.140625 28.40625 C -8.835938 30.070312 -9.1875 31.695312 -9.1875 33.28125 C -9.1875 34.5 -9 35.722656 -8.625 36.953125 C -8.25 38.179688 -7.59375 38.796875 -6.65625 38.796875 Z M -6.65625 38.796875 "/></g></g></g><g fill="#000000" fill-opacity="1"><g transform="translate(407.737217, 179.963869)"><g><path d="M 23.640625 2.890625 C 21.773438 2.890625 20.300781 2.289062 19.21875 1.09375 C 18.132812 -0.101562 17.316406 -1.601562 16.765625 -3.40625 C 16.210938 -5.21875 15.789062 -6.972656 15.5 -8.671875 C 15.09375 -7.085938 14.453125 -5.582031 13.578125 -4.15625 C 12.703125 -2.726562 11.617188 -1.546875 10.328125 -0.609375 C 9.046875 0.316406 7.554688 0.78125 5.859375 0.78125 C 3.054688 0.78125 1.0625 -0.75 -0.125 -3.8125 C -1.320312 -6.875 -1.570312 -10.800781 -0.875 -15.59375 C -0.757812 -16.46875 -0.640625 -16.960938 -0.515625 -17.078125 C -0.398438 -17.191406 0.03125 -17.25 0.78125 -17.25 C 1.78125 -17.25 2.28125 -16.8125 2.28125 -15.9375 C 2.28125 -14.820312 2.191406 -13.828125 2.015625 -12.953125 C 1.835938 -12.023438 1.75 -10.976562 1.75 -9.8125 C 1.75 -7.769531 2.054688 -5.988281 2.671875 -4.46875 C 3.285156 -2.945312 4.347656 -2.1875 5.859375 -2.1875 C 7.265625 -2.1875 8.535156 -2.867188 9.671875 -4.234375 C 10.816406 -5.609375 11.796875 -7.378906 12.609375 -9.546875 C 12.835938 -10.242188 13.054688 -10.851562 13.265625 -11.375 C 13.472656 -11.90625 13.632812 -12.316406 13.75 -12.609375 C 13.976562 -13.191406 14.414062 -13.484375 15.0625 -13.484375 C 15.707031 -13.484375 16.320312 -13.363281 16.90625 -13.125 C 17.488281 -12.894531 17.894531 -12.34375 18.125 -11.46875 C 18.414062 -10.007812 18.722656 -8.390625 19.046875 -6.609375 C 19.367188 -4.828125 19.894531 -3.296875 20.625 -2.015625 C 21.351562 -0.734375 22.359375 -0.09375 23.640625 -0.09375 C 25.628906 -0.09375 27.351562 -0.660156 28.8125 -1.796875 C 30.269531 -2.929688 31.597656 -4.332031 32.796875 -6 C 33.992188 -7.664062 35.113281 -9.226562 36.15625 -10.6875 C 36.332031 -10.976562 36.535156 -11.164062 36.765625 -11.25 C 37.003906 -11.34375 37.242188 -11.390625 37.484375 -11.390625 C 37.890625 -11.390625 38.238281 -11.238281 38.53125 -10.9375 C 38.820312 -10.644531 38.96875 -10.328125 38.96875 -9.984375 C 38.96875 -9.628906 38.878906 -9.28125 38.703125 -8.9375 C 37.535156 -7.238281 36.222656 -5.46875 34.765625 -3.625 C 33.304688 -1.789062 31.671875 -0.25 29.859375 1 C 28.046875 2.257812 25.972656 2.890625 23.640625 2.890625 Z M 23.640625 2.890625 "/></g></g></g><g fill="#000000" fill-opacity="1"><g transform="translate(445.202558, 179.963869)"><g><path d="M 3.328125 54.28125 C 2.859375 54.28125 2.535156 53.875 2.359375 53.0625 C 2.304688 53 2.191406 52.179688 2.015625 50.609375 C 1.898438 49.671875 1.738281 48.34375 1.53125 46.625 C 1.320312 44.90625 1.113281 43.035156 0.90625 41.015625 C 0.707031 39.003906 0.519531 37.09375 0.34375 35.28125 C 0.226562 33.53125 0.0859375 31.707031 -0.078125 29.8125 C -0.253906 27.914062 -0.40625 25.972656 -0.53125 23.984375 C -0.820312 19.898438 -1.050781 15.625 -1.21875 11.15625 C -1.394531 6.695312 -1.484375 2.191406 -1.484375 -2.359375 C -1.484375 -7.035156 -1.363281 -11.632812 -1.125 -16.15625 C -0.894531 -20.675781 -0.519531 -24.953125 0 -28.984375 C 0.519531 -33.015625 1.234375 -36.675781 2.140625 -39.96875 C 3.046875 -43.269531 4.171875 -46 5.515625 -48.15625 C 6.859375 -50.195312 8.578125 -51.671875 10.671875 -52.578125 C 12.773438 -53.484375 14.851562 -53.9375 16.90625 -53.9375 C 20.164062 -53.9375 22.597656 -53.351562 24.203125 -52.1875 C 25.816406 -51.019531 26.625 -48.800781 26.625 -45.53125 C 26.625 -43.019531 26.066406 -40.085938 24.953125 -36.734375 C 23.847656 -33.378906 22.359375 -30.300781 20.484375 -27.5 C 22.359375 -27.84375 24.226562 -27.753906 26.09375 -27.234375 C 27.726562 -26.703125 29.128906 -25.398438 30.296875 -23.328125 C 31.460938 -21.265625 32.363281 -18.859375 33 -16.109375 C 33.644531 -13.367188 33.96875 -10.65625 33.96875 -7.96875 C 33.96875 -7.382812 33.953125 -6.769531 33.921875 -6.125 C 33.898438 -5.488281 33.859375 -4.847656 33.796875 -4.203125 C 35.835938 -5.015625 37.765625 -5.960938 39.578125 -7.046875 C 41.390625 -8.128906 42.90625 -9.429688 44.125 -10.953125 C 44.414062 -11.242188 44.769531 -11.390625 45.1875 -11.390625 C 46.0625 -11.390625 46.5 -10.863281 46.5 -9.8125 C 46.5 -9.519531 46.46875 -9.34375 46.40625 -9.28125 C 44.832031 -6.832031 42.921875 -4.976562 40.671875 -3.71875 C 38.421875 -2.46875 35.894531 -1.34375 33.09375 -0.34375 C 32.507812 1.8125 31.734375 3.835938 30.765625 5.734375 C 29.804688 7.628906 28.570312 9.191406 27.0625 10.421875 C 25.425781 11.703125 23.9375 12.601562 22.59375 13.125 C 21.25 13.65625 20.082031 13.921875 19.09375 13.921875 C 17.570312 13.921875 16.3125 13.304688 15.3125 12.078125 C 14.320312 10.859375 13.828125 9.519531 13.828125 8.0625 C 13.828125 6.65625 14.335938 5.394531 15.359375 4.28125 C 16.390625 3.175781 17.734375 2.210938 19.390625 1.390625 C 21.054688 0.578125 22.863281 -0.175781 24.8125 -0.875 C 26.769531 -1.570312 28.65625 -2.242188 30.46875 -2.890625 C 30.582031 -3.703125 30.671875 -4.546875 30.734375 -5.421875 C 30.796875 -6.304688 30.828125 -7.15625 30.828125 -7.96875 C 30.828125 -9.539062 30.722656 -11.273438 30.515625 -13.171875 C 30.304688 -15.078125 29.910156 -16.890625 29.328125 -18.609375 C 28.742188 -20.328125 27.910156 -21.738281 26.828125 -22.84375 C 25.753906 -23.957031 24.34375 -24.515625 22.59375 -24.515625 C 20.664062 -24.515625 18.941406 -24.003906 17.421875 -22.984375 C 15.898438 -21.960938 14.351562 -20.691406 12.78125 -19.171875 C 12.488281 -18.878906 12.171875 -18.734375 11.828125 -18.734375 C 11.410156 -18.734375 11.070312 -18.894531 10.8125 -19.21875 C 10.550781 -19.539062 10.421875 -19.90625 10.421875 -20.3125 C 10.421875 -20.78125 10.8125 -21.378906 11.59375 -22.109375 C 12.382812 -22.835938 12.984375 -23.40625 13.390625 -23.8125 C 15.441406 -25.5625 17.238281 -27.691406 18.78125 -30.203125 C 20.332031 -32.710938 21.53125 -35.3125 22.375 -38 C 23.21875 -40.6875 23.640625 -43.109375 23.640625 -45.265625 C 23.640625 -47.773438 23.070312 -49.320312 21.9375 -49.90625 C 20.800781 -50.488281 19.125 -50.78125 16.90625 -50.78125 C 15.320312 -50.78125 13.742188 -50.472656 12.171875 -49.859375 C 10.597656 -49.253906 9.253906 -48.101562 8.140625 -46.40625 C 6.910156 -44.425781 5.875 -41.875 5.03125 -38.75 C 4.1875 -35.625 3.53125 -32.132812 3.0625 -28.28125 C 2.539062 -24.425781 2.175781 -20.28125 1.96875 -15.84375 C 1.757812 -11.40625 1.65625 -6.910156 1.65625 -2.359375 C 1.65625 2.078125 1.742188 6.484375 1.921875 10.859375 C 2.035156 15.234375 2.222656 19.4375 2.484375 23.46875 C 2.753906 27.5 3.003906 31.234375 3.234375 34.671875 C 3.359375 36.367188 3.476562 37.972656 3.59375 39.484375 C 3.707031 41.003906 3.820312 42.40625 3.9375 43.6875 C 4.113281 45.675781 4.289062 47.53125 4.46875 49.25 C 4.644531 50.976562 4.734375 51.867188 4.734375 51.921875 C 4.734375 53.492188 4.265625 54.28125 3.328125 54.28125 Z M 19.09375 10.6875 C 19.789062 10.6875 20.632812 10.476562 21.625 10.0625 C 22.613281 9.65625 23.78125 8.925781 25.125 7.875 C 27.164062 6.1875 28.65625 3.820312 29.59375 0.78125 C 27.84375 1.363281 25.972656 1.988281 23.984375 2.65625 C 22.003906 3.332031 20.3125 4.140625 18.90625 5.078125 C 17.507812 6.015625 16.8125 7.125 16.8125 8.40625 C 16.8125 8.925781 16.984375 9.4375 17.328125 9.9375 C 17.679688 10.4375 18.269531 10.6875 19.09375 10.6875 Z M 19.09375 10.6875 "/></g></g></g><g fill="#000000" fill-opacity="1"><g transform="translate(490.28356, 179.963869)"><g><path d="M 8.40625 53.671875 C 8.113281 53.671875 7.820312 53.613281 7.53125 53.5 C 7.238281 53.382812 7.09375 53.125 7.09375 52.71875 C 7.09375 47.632812 7.117188 42.523438 7.171875 37.390625 C 7.234375 32.253906 7.320312 27.085938 7.4375 21.890625 C 7.5625 16.691406 7.648438 11.476562 7.703125 6.25 C 7.765625 1.03125 7.796875 -4.234375 7.796875 -9.546875 L 7.796875 -15.234375 C 7.734375 -16.222656 7.703125 -17.195312 7.703125 -18.15625 C 7.703125 -19.125 7.703125 -20.078125 7.703125 -21.015625 C 7.648438 -20.546875 7.34375 -19.742188 6.78125 -18.609375 C 6.226562 -17.472656 5.585938 -16.234375 4.859375 -14.890625 C 4.128906 -13.546875 3.410156 -12.316406 2.703125 -11.203125 C 2.003906 -10.097656 1.484375 -9.34375 1.140625 -8.9375 C 0.785156 -8.582031 0.375 -8.40625 -0.09375 -8.40625 C -0.550781 -8.40625 -0.894531 -8.566406 -1.125 -8.890625 C -1.363281 -9.210938 -1.484375 -9.519531 -1.484375 -9.8125 C -1.484375 -10.21875 -1.394531 -10.507812 -1.21875 -10.6875 C 0.113281 -12.957031 1.25 -14.863281 2.1875 -16.40625 C 3.125 -17.957031 3.941406 -19.519531 4.640625 -21.09375 C 5.335938 -22.675781 6.039062 -24.578125 6.75 -26.796875 C 6.976562 -27.203125 7.265625 -27.460938 7.609375 -27.578125 C 7.960938 -27.691406 8.285156 -27.75 8.578125 -27.75 C 9.109375 -27.75 9.503906 -27.351562 9.765625 -26.5625 C 10.023438 -25.78125 10.210938 -24.863281 10.328125 -23.8125 C 10.441406 -22.757812 10.53125 -21.796875 10.59375 -20.921875 C 11.707031 -22.035156 12.90625 -23.25 14.1875 -24.5625 C 15.46875 -25.875 16.78125 -27.007812 18.125 -27.96875 C 19.46875 -28.9375 20.753906 -29.421875 21.984375 -29.421875 C 23.617188 -29.421875 25.0625 -28.820312 26.3125 -27.625 C 27.5625 -26.425781 28.679688 -24.90625 29.671875 -23.0625 C 30.671875 -21.226562 31.550781 -19.347656 32.3125 -17.421875 C 33.125 -15.492188 34.007812 -13.609375 34.96875 -11.765625 C 35.9375 -9.929688 37.035156 -8.414062 38.265625 -7.21875 C 39.492188 -6.019531 40.925781 -5.421875 42.5625 -5.421875 C 43.375 -5.421875 44.1875 -5.726562 45 -6.34375 C 45.820312 -6.957031 46.613281 -7.644531 47.375 -8.40625 C 48.132812 -9.164062 48.832031 -9.851562 49.46875 -10.46875 C 50.113281 -11.082031 50.640625 -11.390625 51.046875 -11.390625 C 51.515625 -11.390625 51.894531 -11.238281 52.1875 -10.9375 C 52.476562 -10.644531 52.625 -10.296875 52.625 -9.890625 C 52.625 -9.597656 52.535156 -9.28125 52.359375 -8.9375 C 51.140625 -6.882812 49.664062 -5.289062 47.9375 -4.15625 C 46.21875 -3.019531 44.425781 -2.453125 42.5625 -2.453125 C 40.570312 -2.453125 38.816406 -3.035156 37.296875 -4.203125 C 35.835938 -5.367188 34.539062 -6.84375 33.40625 -8.625 C 32.269531 -10.40625 31.265625 -12.347656 30.390625 -14.453125 C 29.628906 -16.253906 28.820312 -18.070312 27.96875 -19.90625 C 27.125 -21.75 26.234375 -23.296875 25.296875 -24.546875 C 24.367188 -25.804688 23.289062 -26.4375 22.0625 -26.4375 C 21.363281 -26.4375 20.472656 -26.039062 19.390625 -25.25 C 18.316406 -24.46875 17.191406 -23.492188 16.015625 -22.328125 C 14.847656 -21.160156 13.796875 -20.050781 12.859375 -19 C 11.929688 -17.945312 11.265625 -17.160156 10.859375 -16.640625 C 10.859375 -5.191406 10.769531 6.191406 10.59375 17.515625 C 10.476562 23.171875 10.390625 28.84375 10.328125 34.53125 C 10.273438 40.226562 10.25 45.9375 10.25 51.65625 C 10.25 52.1875 10.128906 52.65625 9.890625 53.0625 C 9.660156 53.46875 9.164062 53.671875 8.40625 53.671875 Z M 8.40625 53.671875 "/></g></g></g><g fill="#000000" fill-opacity="1"><g transform="translate(541.404528, 179.963869)"><g><path d="M 4.46875 57.4375 C 2.363281 57.4375 0.785156 56.75 -0.265625 55.375 C -1.316406 54.007812 -2.015625 52.289062 -2.359375 50.21875 C -2.710938 48.144531 -2.890625 46.113281 -2.890625 44.125 C -2.890625 40.6875 -2.234375 37.390625 -0.921875 34.234375 C 0.390625 31.085938 2.007812 27.992188 3.9375 24.953125 C 3.46875 22.265625 2.925781 19.269531 2.3125 15.96875 C 1.707031 12.675781 1.082031 9.304688 0.4375 5.859375 C -0.207031 2.421875 -0.804688 -0.84375 -1.359375 -3.9375 C -1.910156 -7.03125 -2.363281 -9.6875 -2.71875 -11.90625 C -3.644531 -17.457031 -4.472656 -22.875 -5.203125 -28.15625 C -5.929688 -33.4375 -6.503906 -38.789062 -6.921875 -44.21875 C -7.097656 -46.257812 -6.992188 -48.34375 -6.609375 -50.46875 C -6.234375 -52.601562 -5.617188 -54.601562 -4.765625 -56.46875 C -3.921875 -58.34375 -2.898438 -59.847656 -1.703125 -60.984375 C -0.503906 -62.117188 0.820312 -62.6875 2.28125 -62.6875 C 4.03125 -62.6875 5.472656 -62.03125 6.609375 -60.71875 C 7.742188 -59.40625 8.601562 -57.625 9.1875 -55.375 C 9.769531 -53.132812 10.175781 -50.582031 10.40625 -47.71875 C 10.644531 -44.863281 10.765625 -41.890625 10.765625 -38.796875 C 10.765625 -32.898438 10.050781 -27.335938 8.625 -22.109375 C 7.195312 -16.878906 4.726562 -12.164062 1.21875 -7.96875 C 1.28125 -7.269531 1.441406 -6.160156 1.703125 -4.640625 C 1.960938 -3.117188 2.269531 -1.46875 2.625 0.3125 C 2.976562 2.09375 3.300781 3.710938 3.59375 5.171875 C 3.769531 6.222656 4.003906 7.519531 4.296875 9.0625 C 4.585938 10.613281 4.890625 12.21875 5.203125 13.875 C 5.523438 15.539062 5.816406 17.070312 6.078125 18.46875 C 6.347656 19.875 6.539062 20.898438 6.65625 21.546875 C 7.59375 19.960938 8.703125 18.117188 9.984375 16.015625 C 11.265625 13.921875 12.5625 11.804688 13.875 9.671875 C 15.1875 7.546875 16.367188 5.664062 17.421875 4.03125 C 19.296875 1.113281 21.035156 -1.613281 22.640625 -4.15625 C 24.242188 -6.695312 25.65625 -8.84375 26.875 -10.59375 C 27.34375 -11.125 27.8125 -11.390625 28.28125 -11.390625 C 28.75 -11.390625 29.128906 -11.226562 29.421875 -10.90625 C 29.710938 -10.582031 29.859375 -10.242188 29.859375 -9.890625 C 29.859375 -9.484375 29.742188 -9.164062 29.515625 -8.9375 C 28.046875 -6.769531 26.332031 -4.179688 24.375 -1.171875 C 22.425781 1.828125 20.414062 4.972656 18.34375 8.265625 C 16.269531 11.566406 14.285156 14.734375 12.390625 17.765625 C 10.492188 20.804688 8.875 23.46875 7.53125 25.75 C 7.59375 26.332031 7.796875 27.351562 8.140625 28.8125 C 8.492188 30.269531 8.785156 31.757812 9.015625 33.28125 C 9.304688 35.144531 9.582031 37.300781 9.84375 39.75 C 10.113281 42.207031 10.25 44.835938 10.25 47.640625 C 10.25 48.921875 10.101562 50.332031 9.8125 51.875 C 9.519531 53.425781 8.960938 54.738281 8.140625 55.8125 C 7.328125 56.894531 6.101562 57.4375 4.46875 57.4375 Z M 0.265625 -11.828125 C 2.367188 -14.160156 4.132812 -17.628906 5.5625 -22.234375 C 6.988281 -26.847656 7.703125 -32.367188 7.703125 -38.796875 C 7.703125 -41.015625 7.628906 -43.332031 7.484375 -45.75 C 7.335938 -48.175781 7.0625 -50.453125 6.65625 -52.578125 C 6.25 -54.710938 5.691406 -56.4375 4.984375 -57.75 C 4.285156 -59.0625 3.382812 -59.71875 2.28125 -59.71875 C 1.226562 -59.71875 0.207031 -58.972656 -0.78125 -57.484375 C -1.78125 -55.992188 -2.570312 -54.066406 -3.15625 -51.703125 C -3.738281 -49.335938 -3.972656 -46.84375 -3.859375 -44.21875 C -3.796875 -42.582031 -3.632812 -40.40625 -3.375 -37.6875 C -3.113281 -34.976562 -2.757812 -32.046875 -2.3125 -28.890625 C -1.875 -25.742188 -1.4375 -22.664062 -1 -19.65625 C -0.5625 -16.644531 -0.140625 -14.035156 0.265625 -11.828125 Z M 4.46875 54.46875 C 5.34375 54.46875 5.96875 54.054688 6.34375 53.234375 C 6.726562 52.421875 6.960938 51.472656 7.046875 50.390625 C 7.140625 49.304688 7.1875 48.390625 7.1875 47.640625 C 7.1875 45.941406 7.082031 43.910156 6.875 41.546875 C 6.664062 39.179688 6.382812 36.84375 6.03125 34.53125 C 5.6875 32.226562 5.335938 30.410156 4.984375 29.078125 C 3.585938 31.285156 2.421875 33.6875 1.484375 36.28125 C 0.554688 38.882812 0.09375 41.5 0.09375 44.125 C 0.09375 45.238281 0.191406 46.613281 0.390625 48.25 C 0.597656 49.882812 1.007812 51.328125 1.625 52.578125 C 2.238281 53.835938 3.1875 54.46875 4.46875 54.46875 Z M 4.46875 54.46875 "/></g></g></g><g fill="#000000" fill-opacity="1"><g transform="translate(569.67864, 179.963869)"><g><path d="M 14.1875 8.3125 C 11.90625 8.3125 9.875 7.625 8.09375 6.25 C 6.3125 4.882812 4.707031 3.035156 3.28125 0.703125 C 1.851562 -1.628906 0.613281 -4.269531 -0.4375 -7.21875 C -1.488281 -10.164062 -2.394531 -13.25 -3.15625 -16.46875 C -3.789062 -18.914062 -4.269531 -21.21875 -4.59375 -23.375 C -4.914062 -25.539062 -5.164062 -27.703125 -5.34375 -29.859375 C -5.394531 -30.960938 -5.453125 -32.347656 -5.515625 -34.015625 C -5.578125 -35.679688 -5.609375 -37.390625 -5.609375 -39.140625 C -5.609375 -40.890625 -5.609375 -42.46875 -5.609375 -43.875 C -5.609375 -45.914062 -5.546875 -48.21875 -5.421875 -50.78125 C -5.304688 -53.351562 -5.015625 -55.984375 -4.546875 -58.671875 C -4.203125 -60.535156 -3.722656 -62.328125 -3.109375 -64.046875 C -2.492188 -65.773438 -1.675781 -67.191406 -0.65625 -68.296875 C 0.363281 -69.410156 1.632812 -69.96875 3.15625 -69.96875 C 4.664062 -69.96875 5.890625 -69.265625 6.828125 -67.859375 C 7.765625 -66.460938 8.476562 -64.640625 8.96875 -62.390625 C 9.46875 -60.140625 9.804688 -57.726562 9.984375 -55.15625 C 10.160156 -52.59375 10.25 -50.144531 10.25 -47.8125 C 10.25 -42.96875 10.085938 -38.382812 9.765625 -34.0625 C 9.441406 -29.738281 8.722656 -25.59375 7.609375 -21.625 C 6.503906 -17.65625 4.695312 -13.71875 2.1875 -9.8125 C 2.59375 -8.289062 3.175781 -6.65625 3.9375 -4.90625 C 4.695312 -3.15625 5.585938 -1.507812 6.609375 0.03125 C 7.628906 1.582031 8.78125 2.851562 10.0625 3.84375 C 11.351562 4.84375 12.726562 5.34375 14.1875 5.34375 C 15.875 5.34375 17.550781 4.769531 19.21875 3.625 C 20.882812 2.488281 22.472656 1.0625 23.984375 -0.65625 C 25.503906 -2.375 26.890625 -4.140625 28.140625 -5.953125 C 29.398438 -7.765625 30.5 -9.34375 31.4375 -10.6875 C 31.726562 -11.15625 32.164062 -11.390625 32.75 -11.390625 C 33.15625 -11.390625 33.503906 -11.253906 33.796875 -10.984375 C 34.085938 -10.722656 34.234375 -10.359375 34.234375 -9.890625 C 34.234375 -9.660156 34.144531 -9.398438 33.96875 -9.109375 L 33.453125 -8.140625 C 32.398438 -6.566406 31.226562 -4.84375 29.9375 -2.96875 C 28.65625 -1.101562 27.226562 0.6875 25.65625 2.40625 C 24.082031 4.125 22.34375 5.535156 20.4375 6.640625 C 18.539062 7.753906 16.457031 8.3125 14.1875 8.3125 Z M 0.703125 -13.3125 C 2.859375 -17.164062 4.390625 -20.84375 5.296875 -24.34375 C 6.203125 -27.84375 6.753906 -31.472656 6.953125 -35.234375 C 7.160156 -39.003906 7.265625 -43.195312 7.265625 -47.8125 C 7.265625 -49.269531 7.191406 -51.0625 7.046875 -53.1875 C 6.898438 -55.320312 6.679688 -57.4375 6.390625 -59.53125 C 6.097656 -61.632812 5.6875 -63.382812 5.15625 -64.78125 C 4.632812 -66.1875 3.96875 -66.890625 3.15625 -66.890625 C 2.332031 -66.890625 1.613281 -66.4375 1 -65.53125 C 0.394531 -64.632812 -0.109375 -63.484375 -0.515625 -62.078125 C -0.929688 -60.679688 -1.253906 -59.222656 -1.484375 -57.703125 C -1.835938 -55.367188 -2.113281 -52.929688 -2.3125 -50.390625 C -2.519531 -47.847656 -2.625 -45.675781 -2.625 -43.875 C -2.625 -38.90625 -2.429688 -33.796875 -2.046875 -28.546875 C -1.671875 -23.296875 -0.753906 -18.21875 0.703125 -13.3125 Z M 0.703125 -13.3125 "/></g></g></g><g fill="#000000" fill-opacity="1"><g transform="translate(602.3295, 179.963869)"><g><path d="M 13.046875 -2.890625 C 9.660156 -2.890625 6.59375 -3.632812 3.84375 -5.125 C 1.101562 -6.613281 -1.082031 -8.597656 -2.71875 -11.078125 C -4.351562 -13.554688 -5.171875 -16.285156 -5.171875 -19.265625 C -5.171875 -22.941406 -4.351562 -25.84375 -2.71875 -27.96875 C -1.082031 -30.101562 1.078125 -31.171875 3.765625 -31.171875 C 5.628906 -31.171875 7.1875 -30.523438 8.4375 -29.234375 C 9.695312 -27.953125 10.328125 -26.410156 10.328125 -24.609375 C 10.328125 -23.023438 9.960938 -21.328125 9.234375 -19.515625 C 8.503906 -17.710938 7.582031 -15.945312 6.46875 -14.21875 C 5.363281 -12.5 4.171875 -10.941406 2.890625 -9.546875 C 4.054688 -8.492188 5.457031 -7.613281 7.09375 -6.90625 C 8.726562 -6.207031 10.710938 -5.859375 13.046875 -5.859375 C 14.617188 -5.859375 16.175781 -6.328125 17.71875 -7.265625 C 19.269531 -8.203125 20.628906 -9.34375 21.796875 -10.6875 C 22.265625 -11.15625 22.703125 -11.390625 23.109375 -11.390625 C 23.578125 -11.390625 23.957031 -11.226562 24.25 -10.90625 C 24.539062 -10.582031 24.6875 -10.242188 24.6875 -9.890625 C 24.6875 -9.484375 24.570312 -9.132812 24.34375 -8.84375 C 22.414062 -6.976562 20.617188 -5.519531 18.953125 -4.46875 C 17.296875 -3.414062 15.328125 -2.890625 13.046875 -2.890625 Z M 0.78125 -11.46875 C 1.601562 -12.519531 2.507812 -13.789062 3.5 -15.28125 C 4.488281 -16.769531 5.363281 -18.332031 6.125 -19.96875 C 6.882812 -21.601562 7.265625 -23.148438 7.265625 -24.609375 C 7.265625 -26.992188 6.097656 -28.1875 3.765625 -28.1875 C 2.242188 -28.1875 1.046875 -27.71875 0.171875 -26.78125 C -0.703125 -25.851562 -1.296875 -24.703125 -1.609375 -23.328125 C -1.929688 -21.960938 -2.09375 -20.609375 -2.09375 -19.265625 C -2.09375 -17.691406 -1.816406 -16.242188 -1.265625 -14.921875 C -0.710938 -13.609375 -0.03125 -12.457031 0.78125 -11.46875 Z M 0.78125 -11.46875 "/></g></g></g><g fill="#000000" fill-opacity="1"><g transform="translate(625.438983, 179.963869)"><g><path d="M 17.421875 40.984375 C 14.097656 40.984375 11.765625 39.8125 10.421875 37.46875 C 9.078125 35.132812 8.40625 32.25 8.40625 28.8125 C 8.40625 26.007812 8.828125 23.085938 9.671875 20.046875 C 10.523438 17.015625 11.722656 14.195312 13.265625 11.59375 C 14.816406 9 16.640625 7.003906 18.734375 5.609375 C 18.554688 4.609375 18.378906 3.613281 18.203125 2.625 C 18.035156 1.632812 17.832031 0.671875 17.59375 -0.265625 C 17.363281 -1.253906 17.128906 -2.242188 16.890625 -3.234375 C 16.660156 -4.234375 16.429688 -5.253906 16.203125 -6.296875 C 14.796875 -4.898438 12.984375 -3.703125 10.765625 -2.703125 C 8.546875 -1.710938 6.648438 -1.21875 5.078125 -1.21875 C 2.742188 -1.21875 1.078125 -2.035156 0.078125 -3.671875 C -0.910156 -5.304688 -1.34375 -7.265625 -1.21875 -9.546875 C -1.050781 -11.765625 -0.382812 -14.007812 0.78125 -16.28125 C 1.957031 -18.5625 3.492188 -20.472656 5.390625 -22.015625 C 7.285156 -23.566406 9.398438 -24.34375 11.734375 -24.34375 C 13.773438 -24.34375 15.40625 -23.859375 16.625 -22.890625 C 17.851562 -21.929688 18.757812 -20.707031 19.34375 -19.21875 C 19.9375 -17.726562 20.234375 -16.195312 20.234375 -14.625 C 20.234375 -13.925781 20.070312 -12.976562 19.75 -11.78125 C 19.425781 -10.582031 19.0625 -9.632812 18.65625 -8.9375 C 18.945312 -7.9375 19.222656 -6.894531 19.484375 -5.8125 C 19.742188 -4.738281 19.992188 -3.617188 20.234375 -2.453125 C 20.460938 -1.285156 20.675781 -0.160156 20.875 0.921875 C 21.082031 2.003906 21.304688 3.039062 21.546875 4.03125 C 23.523438 2.445312 25.171875 0.925781 26.484375 -0.53125 C 27.796875 -1.988281 29.050781 -3.546875 30.25 -5.203125 C 31.445312 -6.867188 32.804688 -8.753906 34.328125 -10.859375 C 34.617188 -11.210938 35.023438 -11.390625 35.546875 -11.390625 C 35.953125 -11.390625 36.300781 -11.238281 36.59375 -10.9375 C 36.882812 -10.644531 37.03125 -10.296875 37.03125 -9.890625 C 37.03125 -9.597656 37.003906 -9.425781 36.953125 -9.375 L 36.6875 -8.84375 C 34.582031 -5.8125 32.390625 -2.96875 30.109375 -0.3125 C 27.835938 2.34375 25.242188 4.84375 22.328125 7.1875 C 22.679688 8.644531 23.132812 10.554688 23.6875 12.921875 C 24.238281 15.285156 24.71875 17.796875 25.125 20.453125 C 25.539062 23.109375 25.75 25.628906 25.75 28.015625 C 25.75 30.410156 25.515625 32.597656 25.046875 34.578125 C 24.578125 36.566406 23.742188 38.128906 22.546875 39.265625 C 21.347656 40.410156 19.640625 40.984375 17.421875 40.984375 Z M 5.078125 -4.203125 C 6.890625 -4.203125 8.710938 -4.726562 10.546875 -5.78125 C 12.390625 -6.832031 13.953125 -8.160156 15.234375 -9.765625 C 16.515625 -11.367188 17.15625 -13.046875 17.15625 -14.796875 C 17.15625 -16.492188 16.6875 -18 15.75 -19.3125 C 14.820312 -20.625 13.484375 -21.28125 11.734375 -21.28125 C 10.097656 -21.28125 8.519531 -20.648438 7 -19.390625 C 5.488281 -18.140625 4.25 -16.609375 3.28125 -14.796875 C 2.320312 -12.984375 1.84375 -11.234375 1.84375 -9.546875 C 1.84375 -8.085938 2.0625 -6.832031 2.5 -5.78125 C 2.9375 -4.726562 3.796875 -4.203125 5.078125 -4.203125 Z M 17.421875 37.921875 C 18.828125 37.921875 19.90625 37.453125 20.65625 36.515625 C 21.414062 35.578125 21.941406 34.347656 22.234375 32.828125 C 22.523438 31.316406 22.671875 29.710938 22.671875 28.015625 C 22.671875 26.554688 22.554688 24.90625 22.328125 23.0625 C 22.097656 21.226562 21.820312 19.363281 21.5 17.46875 C 21.175781 15.570312 20.835938 13.847656 20.484375 12.296875 C 20.140625 10.753906 19.847656 9.570312 19.609375 8.75 C 18.390625 9.457031 17.265625 10.582031 16.234375 12.125 C 15.210938 13.675781 14.351562 15.414062 13.65625 17.34375 C 12.957031 19.269531 12.414062 21.238281 12.03125 23.25 C 11.65625 25.257812 11.46875 27.113281 11.46875 28.8125 C 11.46875 31.320312 11.921875 33.46875 12.828125 35.25 C 13.734375 37.03125 15.265625 37.921875 17.421875 37.921875 Z M 17.421875 37.921875 "/></g></g></g><g fill="#000000" fill-opacity="1"><g transform="translate(660.978545, 179.963869)"><g><path d="M 13.046875 -2.890625 C 9.660156 -2.890625 6.59375 -3.632812 3.84375 -5.125 C 1.101562 -6.613281 -1.082031 -8.597656 -2.71875 -11.078125 C -4.351562 -13.554688 -5.171875 -16.285156 -5.171875 -19.265625 C -5.171875 -22.941406 -4.351562 -25.84375 -2.71875 -27.96875 C -1.082031 -30.101562 1.078125 -31.171875 3.765625 -31.171875 C 5.628906 -31.171875 7.1875 -30.523438 8.4375 -29.234375 C 9.695312 -27.953125 10.328125 -26.410156 10.328125 -24.609375 C 10.328125 -23.023438 9.960938 -21.328125 9.234375 -19.515625 C 8.503906 -17.710938 7.582031 -15.945312 6.46875 -14.21875 C 5.363281 -12.5 4.171875 -10.941406 2.890625 -9.546875 C 4.054688 -8.492188 5.457031 -7.613281 7.09375 -6.90625 C 8.726562 -6.207031 10.710938 -5.859375 13.046875 -5.859375 C 14.617188 -5.859375 16.175781 -6.328125 17.71875 -7.265625 C 19.269531 -8.203125 20.628906 -9.34375 21.796875 -10.6875 C 22.265625 -11.15625 22.703125 -11.390625 23.109375 -11.390625 C 23.578125 -11.390625 23.957031 -11.226562 24.25 -10.90625 C 24.539062 -10.582031 24.6875 -10.242188 24.6875 -9.890625 C 24.6875 -9.484375 24.570312 -9.132812 24.34375 -8.84375 C 22.414062 -6.976562 20.617188 -5.519531 18.953125 -4.46875 C 17.296875 -3.414062 15.328125 -2.890625 13.046875 -2.890625 Z M 0.78125 -11.46875 C 1.601562 -12.519531 2.507812 -13.789062 3.5 -15.28125 C 4.488281 -16.769531 5.363281 -18.332031 6.125 -19.96875 C 6.882812 -21.601562 7.265625 -23.148438 7.265625 -24.609375 C 7.265625 -26.992188 6.097656 -28.1875 3.765625 -28.1875 C 2.242188 -28.1875 1.046875 -27.71875 0.171875 -26.78125 C -0.703125 -25.851562 -1.296875 -24.703125 -1.609375 -23.328125 C -1.929688 -21.960938 -2.09375 -20.609375 -2.09375 -19.265625 C -2.09375 -17.691406 -1.816406 -16.242188 -1.265625 -14.921875 C -0.710938 -13.609375 -0.03125 -12.457031 0.78125 -11.46875 Z M 0.78125 -11.46875 "/></g></g></g></svg>