<svg xmlns="http://www.w3.org/2000/svg" xmlns:xlink="http://www.w3.org/1999/xlink" width="500" zoomAndPan="magnify" viewBox="0 0 375 374.999991" height="500" preserveAspectRatio="xMidYMid meet" version="1.0"><defs><g/></defs><g fill="#000000" fill-opacity="1"><g transform="translate(89.915904, 187.973867)"><g><path d="M 1.9375 -24.625 C 1.9375 -26.132812 2.382812 -27.523438 3.28125 -28.796875 C 4.1875 -30.078125 5.5 -31.101562 7.21875 -31.875 C 8.945312 -32.65625 11.054688 -33.046875 13.546875 -33.046875 C 15.535156 -33.046875 17.257812 -32.90625 18.71875 -32.625 C 20.175781 -32.351562 21.53125 -32 22.78125 -31.5625 L 22.78125 -27.21875 L 22.453125 -27.21875 C 22.453125 -27.21875 22.363281 -27.398438 22.1875 -27.765625 C 22.019531 -28.140625 21.726562 -28.59375 21.3125 -29.125 C 20.90625 -29.664062 20.363281 -30.207031 19.6875 -30.75 C 19.007812 -31.289062 18.160156 -31.742188 17.140625 -32.109375 C 16.128906 -32.484375 14.929688 -32.671875 13.546875 -32.671875 C 11.535156 -32.671875 9.832031 -32.3125 8.4375 -31.59375 C 7.050781 -30.882812 6 -29.976562 5.28125 -28.875 C 4.570312 -27.769531 4.21875 -26.613281 4.21875 -25.40625 C 4.21875 -24.300781 4.503906 -23.359375 5.078125 -22.578125 C 5.648438 -21.804688 6.425781 -21.140625 7.40625 -20.578125 C 8.382812 -20.015625 9.476562 -19.515625 10.6875 -19.078125 C 11.90625 -18.648438 13.160156 -18.21875 14.453125 -17.78125 C 15.742188 -17.351562 16.992188 -16.882812 18.203125 -16.375 C 19.421875 -15.875 20.519531 -15.265625 21.5 -14.546875 C 22.476562 -13.835938 23.253906 -12.976562 23.828125 -11.96875 C 24.398438 -10.96875 24.6875 -9.753906 24.6875 -8.328125 C 24.6875 -7.203125 24.40625 -6.101562 23.84375 -5.03125 C 23.289062 -3.96875 22.484375 -3.007812 21.421875 -2.15625 C 20.359375 -1.300781 19.082031 -0.617188 17.59375 -0.109375 C 16.101562 0.390625 14.421875 0.640625 12.546875 0.640625 C 11.117188 0.640625 9.753906 0.4375 8.453125 0.03125 C 7.160156 -0.375 5.972656 -0.882812 4.890625 -1.5 C 3.804688 -2.125 2.867188 -2.726562 2.078125 -3.3125 L 2.078125 -7.640625 L 2.390625 -7.640625 C 2.390625 -7.640625 2.554688 -7.378906 2.890625 -6.859375 C 3.234375 -6.347656 3.734375 -5.707031 4.390625 -4.9375 C 5.046875 -4.175781 5.851562 -3.410156 6.8125 -2.640625 C 7.78125 -1.867188 8.894531 -1.222656 10.15625 -0.703125 C 11.425781 -0.191406 12.828125 0.0625 14.359375 0.0625 C 15.546875 0.0625 16.648438 -0.128906 17.671875 -0.515625 C 18.703125 -0.910156 19.597656 -1.441406 20.359375 -2.109375 C 21.128906 -2.773438 21.726562 -3.53125 22.15625 -4.375 C 22.59375 -5.21875 22.8125 -6.09375 22.8125 -7 C 22.8125 -8.207031 22.519531 -9.25 21.9375 -10.125 C 21.351562 -11 20.5625 -11.75 19.5625 -12.375 C 18.570312 -13 17.457031 -13.5625 16.21875 -14.0625 C 14.976562 -14.5625 13.695312 -15.035156 12.375 -15.484375 C 11.0625 -15.941406 9.78125 -16.425781 8.53125 -16.9375 C 7.289062 -17.457031 6.171875 -18.054688 5.171875 -18.734375 C 4.179688 -19.421875 3.394531 -20.242188 2.8125 -21.203125 C 2.226562 -22.171875 1.9375 -23.3125 1.9375 -24.625 Z M 1.9375 -24.625 "/></g></g></g><g fill="#000000" fill-opacity="1"><g transform="translate(119.846975, 187.973867)"><g><path d="M 0.96875 -32.078125 L 0.96875 -32.40625 L 9.71875 -32.40625 L 9.71875 -32.078125 C 8.789062 -32.078125 8.113281 -31.796875 7.6875 -31.234375 C 7.269531 -30.671875 7.003906 -29.757812 6.890625 -28.5 C 6.785156 -27.238281 6.734375 -25.535156 6.734375 -23.390625 L 6.734375 -9.015625 C 6.734375 -6.890625 6.785156 -5.191406 6.890625 -3.921875 C 7.003906 -2.648438 7.269531 -1.734375 7.6875 -1.171875 C 8.113281 -0.609375 8.789062 -0.328125 9.71875 -0.328125 L 9.71875 0 L 0.96875 0 L 0.96875 -0.328125 C 1.894531 -0.328125 2.566406 -0.609375 2.984375 -1.171875 C 3.410156 -1.734375 3.675781 -2.648438 3.78125 -3.921875 C 3.894531 -5.191406 3.953125 -6.890625 3.953125 -9.015625 L 3.953125 -23.390625 C 3.953125 -25.535156 3.894531 -27.238281 3.78125 -28.5 C 3.675781 -29.757812 3.410156 -30.671875 2.984375 -31.234375 C 2.566406 -31.796875 1.894531 -32.078125 0.96875 -32.078125 Z M 0.96875 -32.078125 "/></g></g></g><g fill="#000000" fill-opacity="1"><g transform="translate(133.841547, 187.973867)"><g><path d="M 0.96875 -32.40625 L 9.71875 -32.40625 L 9.71875 -32.078125 C 8.789062 -32.078125 8.113281 -31.796875 7.6875 -31.234375 C 7.269531 -30.671875 7.003906 -29.757812 6.890625 -28.5 C 6.785156 -27.238281 6.734375 -25.535156 6.734375 -23.390625 L 6.734375 -0.328125 L 10.859375 -0.328125 C 11.378906 -0.328125 12.050781 -0.34375 12.875 -0.375 C 13.707031 -0.40625 14.609375 -0.472656 15.578125 -0.578125 C 16.554688 -0.691406 17.523438 -0.859375 18.484375 -1.078125 C 19.453125 -1.304688 20.335938 -1.601562 21.140625 -1.96875 C 21.953125 -2.34375 22.597656 -2.804688 23.078125 -3.359375 C 23.566406 -3.910156 23.8125 -4.570312 23.8125 -5.34375 L 24.140625 -5.34375 L 24.140625 0 L 0.96875 0 L 0.96875 -0.328125 C 1.894531 -0.328125 2.566406 -0.609375 2.984375 -1.171875 C 3.410156 -1.734375 3.675781 -2.648438 3.78125 -3.921875 C 3.894531 -5.191406 3.953125 -6.890625 3.953125 -9.015625 L 3.953125 -23.390625 C 3.953125 -25.535156 3.894531 -27.238281 3.78125 -28.5 C 3.675781 -29.757812 3.410156 -30.671875 2.984375 -31.234375 C 2.566406 -31.796875 1.894531 -32.078125 0.96875 -32.078125 Z M 0.96875 -32.40625 "/></g></g></g><g fill="#000000" fill-opacity="1"><g transform="translate(162.250226, 187.973867)"><g><path d="M 0 -32.078125 L 0 -32.40625 L 10.625 -32.40625 L 10.625 -32.078125 C 9.476562 -32.078125 8.609375 -31.925781 8.015625 -31.625 C 7.421875 -31.320312 7.035156 -30.898438 6.859375 -30.359375 C 6.691406 -29.816406 6.671875 -29.191406 6.796875 -28.484375 C 6.929688 -27.773438 7.148438 -27.007812 7.453125 -26.1875 L 16.203125 -3.109375 C 17.546875 -6.929688 18.941406 -10.753906 20.390625 -14.578125 C 21.835938 -18.398438 23.1875 -22.238281 24.4375 -26.09375 C 24.65625 -26.738281 24.796875 -27.410156 24.859375 -28.109375 C 24.921875 -28.816406 24.84375 -29.46875 24.625 -30.0625 C 24.414062 -30.65625 24.003906 -31.140625 23.390625 -31.515625 C 22.785156 -31.890625 21.910156 -32.078125 20.765625 -32.078125 L 20.765625 -32.40625 L 29.9375 -32.40625 L 29.9375 -32.078125 C 28.945312 -32.078125 28.132812 -31.632812 27.5 -30.75 C 26.863281 -29.863281 26.195312 -28.523438 25.5 -26.734375 L 15.140625 0.640625 L 14.8125 0.640625 L 4.4375 -26.734375 C 3.726562 -28.523438 3.054688 -29.863281 2.421875 -30.75 C 1.796875 -31.632812 0.988281 -32.078125 0 -32.078125 Z M 0 -32.078125 "/></g></g></g><g fill="#000000" fill-opacity="1"><g transform="translate(195.485197, 187.973867)"><g><path d="M 0.96875 -5.671875 C 0.96875 -7.015625 1.28125 -8.21875 1.90625 -9.28125 C 2.539062 -10.351562 3.347656 -11.328125 4.328125 -12.203125 C 5.304688 -13.078125 6.347656 -13.875 7.453125 -14.59375 C 8.554688 -15.320312 9.597656 -15.992188 10.578125 -16.609375 C 11.566406 -17.222656 12.375 -17.8125 13 -18.375 C 13.625 -18.9375 13.9375 -19.5 13.9375 -20.0625 C 13.9375 -20.363281 13.859375 -20.582031 13.703125 -20.71875 C 13.554688 -20.863281 13.375 -20.9375 13.15625 -20.9375 C 12.769531 -20.9375 12.40625 -20.757812 12.0625 -20.40625 C 11.726562 -20.0625 11.398438 -19.664062 11.078125 -19.21875 C 10.753906 -18.78125 10.40625 -18.390625 10.03125 -18.046875 C 9.65625 -17.703125 9.238281 -17.53125 8.78125 -17.53125 C 8.332031 -17.53125 8.054688 -17.710938 7.953125 -18.078125 C 7.859375 -18.453125 7.882812 -18.84375 8.03125 -19.25 C 8.53125 -20.539062 8.984375 -21.742188 9.390625 -22.859375 C 9.804688 -23.972656 10.210938 -25.050781 10.609375 -26.09375 C 11.015625 -27.144531 11.425781 -28.234375 11.84375 -29.359375 C 12.257812 -30.484375 12.726562 -31.710938 13.25 -33.046875 L 13.578125 -33.046875 L 23.953125 -5.671875 C 24.660156 -3.898438 25.328125 -2.566406 25.953125 -1.671875 C 26.578125 -0.773438 27.390625 -0.328125 28.390625 -0.328125 L 28.390625 0 L 17.765625 0 L 17.765625 -0.328125 C 18.898438 -0.328125 19.765625 -0.476562 20.359375 -0.78125 C 20.960938 -1.082031 21.347656 -1.503906 21.515625 -2.046875 C 21.691406 -2.585938 21.710938 -3.210938 21.578125 -3.921875 C 21.453125 -4.628906 21.238281 -5.394531 20.9375 -6.21875 L 16.921875 -16.8125 C 17.046875 -15.78125 17.109375 -14.488281 17.109375 -12.9375 C 17.109375 -10.320312 16.703125 -7.988281 15.890625 -5.9375 C 15.085938 -3.882812 13.921875 -2.273438 12.390625 -1.109375 C 10.867188 0.0546875 9.03125 0.640625 6.875 0.640625 C 5.613281 0.640625 4.546875 0.347656 3.671875 -0.234375 C 2.796875 -0.816406 2.125 -1.585938 1.65625 -2.546875 C 1.195312 -3.503906 0.96875 -4.546875 0.96875 -5.671875 Z M 3.734375 -6.28125 C 3.734375 -4.769531 4.1875 -3.492188 5.09375 -2.453125 C 6 -1.421875 7.238281 -0.90625 8.8125 -0.90625 C 10.175781 -0.90625 11.351562 -1.269531 12.34375 -2 C 13.34375 -2.738281 14.171875 -3.703125 14.828125 -4.890625 C 15.484375 -6.078125 15.972656 -7.375 16.296875 -8.78125 C 16.617188 -10.1875 16.78125 -11.546875 16.78125 -12.859375 C 16.78125 -14.078125 16.742188 -15.160156 16.671875 -16.109375 C 16.597656 -17.054688 16.410156 -18.003906 16.109375 -18.953125 L 12.1875 -29.296875 L 8.453125 -19.375 C 8.242188 -18.8125 8.1875 -18.414062 8.28125 -18.1875 C 8.375 -17.96875 8.550781 -17.859375 8.8125 -17.859375 C 9.175781 -17.859375 9.53125 -18.03125 9.875 -18.375 C 10.226562 -18.71875 10.578125 -19.109375 10.921875 -19.546875 C 11.265625 -19.992188 11.625 -20.390625 12 -20.734375 C 12.382812 -21.085938 12.789062 -21.265625 13.21875 -21.265625 C 13.519531 -21.265625 13.773438 -21.160156 13.984375 -20.953125 C 14.191406 -20.742188 14.296875 -20.425781 14.296875 -20 C 14.296875 -19.28125 14.039062 -18.625 13.53125 -18.03125 C 13.019531 -17.4375 12.363281 -16.859375 11.5625 -16.296875 C 10.769531 -15.734375 9.914062 -15.140625 9 -14.515625 C 8.09375 -13.890625 7.238281 -13.191406 6.4375 -12.421875 C 5.644531 -11.660156 4.992188 -10.78125 4.484375 -9.78125 C 3.984375 -8.789062 3.734375 -7.625 3.734375 -6.28125 Z M 3.734375 -6.28125 "/></g></g></g><g fill="#000000" fill-opacity="1"><g transform="translate(227.165393, 187.973867)"><g><path d="M 1.9375 -24.625 C 1.9375 -26.132812 2.382812 -27.523438 3.28125 -28.796875 C 4.1875 -30.078125 5.5 -31.101562 7.21875 -31.875 C 8.945312 -32.65625 11.054688 -33.046875 13.546875 -33.046875 C 15.535156 -33.046875 17.257812 -32.90625 18.71875 -32.625 C 20.175781 -32.351562 21.53125 -32 22.78125 -31.5625 L 22.78125 -27.21875 L 22.453125 -27.21875 C 22.453125 -27.21875 22.363281 -27.398438 22.1875 -27.765625 C 22.019531 -28.140625 21.726562 -28.59375 21.3125 -29.125 C 20.90625 -29.664062 20.363281 -30.207031 19.6875 -30.75 C 19.007812 -31.289062 18.160156 -31.742188 17.140625 -32.109375 C 16.128906 -32.484375 14.929688 -32.671875 13.546875 -32.671875 C 11.535156 -32.671875 9.832031 -32.3125 8.4375 -31.59375 C 7.050781 -30.882812 6 -29.976562 5.28125 -28.875 C 4.570312 -27.769531 4.21875 -26.613281 4.21875 -25.40625 C 4.21875 -24.300781 4.503906 -23.359375 5.078125 -22.578125 C 5.648438 -21.804688 6.425781 -21.140625 7.40625 -20.578125 C 8.382812 -20.015625 9.476562 -19.515625 10.6875 -19.078125 C 11.90625 -18.648438 13.160156 -18.21875 14.453125 -17.78125 C 15.742188 -17.351562 16.992188 -16.882812 18.203125 -16.375 C 19.421875 -15.875 20.519531 -15.265625 21.5 -14.546875 C 22.476562 -13.835938 23.253906 -12.976562 23.828125 -11.96875 C 24.398438 -10.96875 24.6875 -9.753906 24.6875 -8.328125 C 24.6875 -7.203125 24.40625 -6.101562 23.84375 -5.03125 C 23.289062 -3.96875 22.484375 -3.007812 21.421875 -2.15625 C 20.359375 -1.300781 19.082031 -0.617188 17.59375 -0.109375 C 16.101562 0.390625 14.421875 0.640625 12.546875 0.640625 C 11.117188 0.640625 9.753906 0.4375 8.453125 0.03125 C 7.160156 -0.375 5.972656 -0.882812 4.890625 -1.5 C 3.804688 -2.125 2.867188 -2.726562 2.078125 -3.3125 L 2.078125 -7.640625 L 2.390625 -7.640625 C 2.390625 -7.640625 2.554688 -7.378906 2.890625 -6.859375 C 3.234375 -6.347656 3.734375 -5.707031 4.390625 -4.9375 C 5.046875 -4.175781 5.851562 -3.410156 6.8125 -2.640625 C 7.78125 -1.867188 8.894531 -1.222656 10.15625 -0.703125 C 11.425781 -0.191406 12.828125 0.0625 14.359375 0.0625 C 15.546875 0.0625 16.648438 -0.128906 17.671875 -0.515625 C 18.703125 -0.910156 19.597656 -1.441406 20.359375 -2.109375 C 21.128906 -2.773438 21.726562 -3.53125 22.15625 -4.375 C 22.59375 -5.21875 22.8125 -6.09375 22.8125 -7 C 22.8125 -8.207031 22.519531 -9.25 21.9375 -10.125 C 21.351562 -11 20.5625 -11.75 19.5625 -12.375 C 18.570312 -13 17.457031 -13.5625 16.21875 -14.0625 C 14.976562 -14.5625 13.695312 -15.035156 12.375 -15.484375 C 11.0625 -15.941406 9.78125 -16.425781 8.53125 -16.9375 C 7.289062 -17.457031 6.171875 -18.054688 5.171875 -18.734375 C 4.179688 -19.421875 3.394531 -20.242188 2.8125 -21.203125 C 2.226562 -22.171875 1.9375 -23.3125 1.9375 -24.625 Z M 1.9375 -24.625 "/></g></g></g><g fill="#000000" fill-opacity="1"><g transform="translate(176.843225, 202.674713)"><g><path d="M -2.25 14.09375 C -2.71875 14.09375 -3.085938 13.941406 -3.359375 13.640625 C -3.640625 13.347656 -3.835938 12.976562 -3.953125 12.53125 C -4.078125 12.09375 -4.140625 11.660156 -4.140625 11.234375 C -4.140625 10.597656 -3.972656 9.90625 -3.640625 9.15625 C -3.316406 8.40625 -2.890625 7.679688 -2.359375 6.984375 C -1.828125 6.285156 -1.273438 5.679688 -0.703125 5.171875 C -0.648438 4.128906 -0.617188 3.171875 -0.609375 2.296875 C -0.597656 1.429688 -0.59375 0.566406 -0.59375 -0.296875 C -0.59375 -1.085938 -0.597656 -1.828125 -0.609375 -2.515625 C -0.617188 -3.203125 -0.632812 -3.878906 -0.65625 -4.546875 L -0.65625 -9.28125 C -0.65625 -9.769531 -0.648438 -10.265625 -0.640625 -10.765625 C -0.628906 -11.265625 -0.613281 -11.773438 -0.59375 -12.296875 C -0.550781 -13.335938 -0.46875 -14.351562 -0.34375 -15.34375 C -0.226562 -16.34375 -0.0664062 -17.296875 0.140625 -18.203125 C 0.335938 -19.085938 0.632812 -19.875 1.03125 -20.5625 C 1.382812 -21.226562 1.816406 -21.765625 2.328125 -22.171875 C 2.847656 -22.578125 3.460938 -22.78125 4.171875 -22.78125 C 5.285156 -22.78125 6.132812 -22.367188 6.71875 -21.546875 C 7.300781 -20.734375 7.59375 -19.707031 7.59375 -18.46875 C 7.59375 -17.269531 7.359375 -15.984375 6.890625 -14.609375 C 6.429688 -13.242188 5.859375 -11.859375 5.171875 -10.453125 C 4.460938 -9.078125 3.679688 -7.738281 2.828125 -6.4375 C 1.984375 -5.132812 1.171875 -3.972656 0.390625 -2.953125 C 0.398438 -2.796875 0.40625 -2.628906 0.40625 -2.453125 C 0.40625 -2.273438 0.40625 -2.109375 0.40625 -1.953125 L 0.40625 -1 C 0.40625 -0.507812 0.40625 -0.046875 0.40625 0.390625 C 0.40625 0.835938 0.40625 1.269531 0.40625 1.6875 C 0.40625 2.082031 0.398438 2.5 0.390625 2.9375 C 0.390625 3.382812 0.378906 3.851562 0.359375 4.34375 C 0.910156 3.882812 1.554688 3.390625 2.296875 2.859375 C 3.046875 2.328125 3.796875 1.816406 4.546875 1.328125 C 5.296875 0.835938 5.9375 0.414062 6.46875 0.0625 C 7.414062 -0.570312 8.300781 -1.1875 9.125 -1.78125 C 9.957031 -2.382812 10.660156 -3.019531 11.234375 -3.6875 C 11.328125 -3.789062 11.441406 -3.84375 11.578125 -3.84375 C 11.703125 -3.84375 11.816406 -3.800781 11.921875 -3.71875 C 12.023438 -3.644531 12.078125 -3.53125 12.078125 -3.375 C 12.078125 -3.195312 12.007812 -3.046875 11.875 -2.921875 C 11.320312 -2.253906 10.554688 -1.5625 9.578125 -0.84375 C 8.609375 -0.125 7.550781 0.601562 6.40625 1.34375 C 5.269531 2.082031 4.160156 2.828125 3.078125 3.578125 C 1.992188 4.328125 1.078125 5.054688 0.328125 5.765625 C 0.285156 6.628906 0.265625 7.441406 0.265625 8.203125 C 0.265625 8.972656 0.1875 9.832031 0.03125 10.78125 C -0.101562 11.632812 -0.347656 12.398438 -0.703125 13.078125 C -1.054688 13.753906 -1.570312 14.09375 -2.25 14.09375 Z M 0.328125 -5.109375 L 0.328125 -4.578125 C 0.992188 -5.523438 1.691406 -6.5625 2.421875 -7.6875 C 3.148438 -8.820312 3.820312 -10 4.4375 -11.21875 C 5.0625 -12.445312 5.570312 -13.679688 5.96875 -14.921875 C 6.363281 -16.160156 6.5625 -17.351562 6.5625 -18.5 C 6.5625 -19.363281 6.375 -20.125 6 -20.78125 C 5.625 -21.445312 5.015625 -21.78125 4.171875 -21.78125 C 3.398438 -21.78125 2.78125 -21.445312 2.3125 -20.78125 C 1.851562 -20.125 1.503906 -19.34375 1.265625 -18.4375 C 1.128906 -17.882812 1.003906 -17.257812 0.890625 -16.5625 C 0.785156 -15.863281 0.695312 -15.171875 0.625 -14.484375 C 0.5625 -13.804688 0.507812 -13.222656 0.46875 -12.734375 C 0.414062 -12.046875 0.382812 -11.425781 0.375 -10.875 C 0.363281 -10.320312 0.359375 -9.789062 0.359375 -9.28125 L 0.359375 -7.203125 C 0.335938 -6.867188 0.328125 -6.523438 0.328125 -6.171875 C 0.328125 -5.816406 0.328125 -5.460938 0.328125 -5.109375 Z M -2.25 13.09375 C -1.945312 13.09375 -1.695312 12.890625 -1.5 12.484375 C -1.3125 12.078125 -1.164062 11.546875 -1.0625 10.890625 C -0.96875 10.242188 -0.890625 9.539062 -0.828125 8.78125 C -0.765625 8.03125 -0.710938 7.289062 -0.671875 6.5625 C -1.066406 6.957031 -1.453125 7.421875 -1.828125 7.953125 C -2.203125 8.484375 -2.507812 9.03125 -2.75 9.59375 C -2.988281 10.15625 -3.109375 10.703125 -3.109375 11.234375 C -3.109375 11.640625 -3.039062 12.050781 -2.90625 12.46875 C -2.78125 12.882812 -2.5625 13.09375 -2.25 13.09375 Z M -2.25 13.09375 "/></g></g></g><g fill="#000000" fill-opacity="1"><g transform="translate(188.423776, 202.674713)"><g><path d="M 7.984375 0.96875 C 7.347656 0.96875 6.847656 0.765625 6.484375 0.359375 C 6.117188 -0.0351562 5.84375 -0.535156 5.65625 -1.140625 C 5.46875 -1.753906 5.328125 -2.347656 5.234375 -2.921875 C 5.085938 -2.390625 4.867188 -1.878906 4.578125 -1.390625 C 4.285156 -0.910156 3.921875 -0.515625 3.484375 -0.203125 C 3.054688 0.109375 2.554688 0.265625 1.984375 0.265625 C 1.035156 0.265625 0.359375 -0.25 -0.046875 -1.28125 C -0.453125 -2.320312 -0.535156 -3.648438 -0.296875 -5.265625 C -0.253906 -5.554688 -0.210938 -5.722656 -0.171875 -5.765625 C -0.140625 -5.804688 0.00390625 -5.828125 0.265625 -5.828125 C 0.597656 -5.828125 0.765625 -5.675781 0.765625 -5.375 C 0.765625 -5 0.734375 -4.664062 0.671875 -4.375 C 0.617188 -4.0625 0.59375 -3.707031 0.59375 -3.3125 C 0.59375 -2.625 0.695312 -2.019531 0.90625 -1.5 C 1.113281 -0.988281 1.472656 -0.734375 1.984375 -0.734375 C 2.453125 -0.734375 2.878906 -0.960938 3.265625 -1.421875 C 3.648438 -1.890625 3.976562 -2.488281 4.25 -3.21875 C 4.332031 -3.457031 4.40625 -3.664062 4.46875 -3.84375 C 4.539062 -4.019531 4.597656 -4.15625 4.640625 -4.25 C 4.710938 -4.445312 4.859375 -4.546875 5.078125 -4.546875 C 5.296875 -4.546875 5.503906 -4.503906 5.703125 -4.421875 C 5.898438 -4.347656 6.035156 -4.164062 6.109375 -3.875 C 6.210938 -3.375 6.316406 -2.820312 6.421875 -2.21875 C 6.535156 -1.625 6.710938 -1.109375 6.953125 -0.671875 C 7.203125 -0.242188 7.546875 -0.03125 7.984375 -0.03125 C 8.648438 -0.03125 9.226562 -0.222656 9.71875 -0.609375 C 10.207031 -0.992188 10.65625 -1.460938 11.0625 -2.015625 C 11.46875 -2.578125 11.847656 -3.109375 12.203125 -3.609375 C 12.265625 -3.703125 12.332031 -3.765625 12.40625 -3.796875 C 12.488281 -3.828125 12.566406 -3.84375 12.640625 -3.84375 C 12.785156 -3.84375 12.90625 -3.789062 13 -3.6875 C 13.09375 -3.59375 13.140625 -3.488281 13.140625 -3.375 C 13.140625 -3.25 13.113281 -3.128906 13.0625 -3.015625 C 12.664062 -2.441406 12.21875 -1.84375 11.71875 -1.21875 C 11.226562 -0.601562 10.675781 -0.0859375 10.0625 0.328125 C 9.457031 0.753906 8.765625 0.96875 7.984375 0.96875 Z M 7.984375 0.96875 "/></g></g></g><g fill="#000000" fill-opacity="1"><g transform="translate(201.067837, 202.674713)"><g><path d="M 1.125 18.3125 C 0.96875 18.3125 0.859375 18.175781 0.796875 17.90625 C 0.773438 17.882812 0.734375 17.609375 0.671875 17.078125 C 0.640625 16.765625 0.585938 16.316406 0.515625 15.734375 C 0.441406 15.148438 0.367188 14.519531 0.296875 13.84375 C 0.234375 13.164062 0.175781 12.519531 0.125 11.90625 C 0.0820312 11.3125 0.03125 10.691406 -0.03125 10.046875 C -0.09375 9.410156 -0.140625 8.757812 -0.171875 8.09375 C -0.273438 6.71875 -0.351562 5.273438 -0.40625 3.765625 C -0.46875 2.253906 -0.5 0.734375 -0.5 -0.796875 C -0.5 -2.367188 -0.457031 -3.914062 -0.375 -5.4375 C -0.300781 -6.96875 -0.175781 -8.414062 0 -9.78125 C 0.175781 -11.132812 0.414062 -12.367188 0.71875 -13.484375 C 1.03125 -14.597656 1.410156 -15.519531 1.859375 -16.25 C 2.316406 -16.9375 2.898438 -17.429688 3.609375 -17.734375 C 4.316406 -18.046875 5.015625 -18.203125 5.703125 -18.203125 C 6.804688 -18.203125 7.628906 -18.003906 8.171875 -17.609375 C 8.710938 -17.210938 8.984375 -16.460938 8.984375 -15.359375 C 8.984375 -14.515625 8.796875 -13.523438 8.421875 -12.390625 C 8.046875 -11.265625 7.539062 -10.226562 6.90625 -9.28125 C 7.539062 -9.394531 8.175781 -9.363281 8.8125 -9.1875 C 9.351562 -9.007812 9.820312 -8.570312 10.21875 -7.875 C 10.613281 -7.175781 10.921875 -6.363281 11.140625 -5.4375 C 11.359375 -4.507812 11.46875 -3.59375 11.46875 -2.6875 C 11.46875 -2.488281 11.460938 -2.28125 11.453125 -2.0625 C 11.441406 -1.851562 11.425781 -1.640625 11.40625 -1.421875 C 12.09375 -1.691406 12.738281 -2.007812 13.34375 -2.375 C 13.957031 -2.738281 14.472656 -3.175781 14.890625 -3.6875 C 14.992188 -3.789062 15.113281 -3.84375 15.25 -3.84375 C 15.539062 -3.84375 15.6875 -3.664062 15.6875 -3.3125 C 15.6875 -3.207031 15.675781 -3.144531 15.65625 -3.125 C 15.125 -2.300781 14.476562 -1.675781 13.71875 -1.25 C 12.96875 -0.832031 12.117188 -0.457031 11.171875 -0.125 C 10.972656 0.601562 10.707031 1.285156 10.375 1.921875 C 10.050781 2.566406 9.632812 3.097656 9.125 3.515625 C 8.570312 3.953125 8.066406 4.257812 7.609375 4.4375 C 7.160156 4.613281 6.769531 4.703125 6.4375 4.703125 C 5.925781 4.703125 5.503906 4.492188 5.171875 4.078125 C 4.835938 3.660156 4.671875 3.207031 4.671875 2.71875 C 4.671875 2.25 4.84375 1.828125 5.1875 1.453125 C 5.53125 1.078125 5.984375 0.75 6.546875 0.46875 C 7.109375 0.195312 7.71875 -0.0546875 8.375 -0.296875 C 9.03125 -0.535156 9.664062 -0.757812 10.28125 -0.96875 C 10.320312 -1.25 10.351562 -1.535156 10.375 -1.828125 C 10.394531 -2.128906 10.40625 -2.414062 10.40625 -2.6875 C 10.40625 -3.21875 10.367188 -3.800781 10.296875 -4.4375 C 10.222656 -5.082031 10.085938 -5.695312 9.890625 -6.28125 C 9.703125 -6.863281 9.425781 -7.335938 9.0625 -7.703125 C 8.695312 -8.078125 8.21875 -8.265625 7.625 -8.265625 C 6.96875 -8.265625 6.382812 -8.09375 5.875 -7.75 C 5.363281 -7.40625 4.84375 -6.976562 4.3125 -6.46875 C 4.21875 -6.375 4.109375 -6.328125 3.984375 -6.328125 C 3.847656 -6.328125 3.734375 -6.378906 3.640625 -6.484375 C 3.554688 -6.585938 3.515625 -6.710938 3.515625 -6.859375 C 3.515625 -7.015625 3.644531 -7.210938 3.90625 -7.453125 C 4.175781 -7.703125 4.378906 -7.894531 4.515625 -8.03125 C 5.210938 -8.625 5.820312 -9.34375 6.34375 -10.1875 C 6.863281 -11.039062 7.265625 -11.921875 7.546875 -12.828125 C 7.835938 -13.734375 7.984375 -14.550781 7.984375 -15.28125 C 7.984375 -16.125 7.789062 -16.644531 7.40625 -16.84375 C 7.019531 -17.039062 6.453125 -17.140625 5.703125 -17.140625 C 5.171875 -17.140625 4.640625 -17.035156 4.109375 -16.828125 C 3.578125 -16.617188 3.125 -16.226562 2.75 -15.65625 C 2.332031 -14.988281 1.976562 -14.128906 1.6875 -13.078125 C 1.40625 -12.023438 1.1875 -10.847656 1.03125 -9.546875 C 0.851562 -8.242188 0.726562 -6.84375 0.65625 -5.34375 C 0.59375 -3.851562 0.5625 -2.335938 0.5625 -0.796875 C 0.5625 0.703125 0.59375 2.1875 0.65625 3.65625 C 0.6875 5.132812 0.742188 6.550781 0.828125 7.90625 C 0.921875 9.269531 1.007812 10.535156 1.09375 11.703125 C 1.132812 12.273438 1.171875 12.816406 1.203125 13.328125 C 1.242188 13.835938 1.285156 14.3125 1.328125 14.75 C 1.390625 15.414062 1.445312 16.035156 1.5 16.609375 C 1.5625 17.191406 1.59375 17.492188 1.59375 17.515625 C 1.59375 18.046875 1.4375 18.3125 1.125 18.3125 Z M 6.4375 3.609375 C 6.675781 3.609375 6.960938 3.535156 7.296875 3.390625 C 7.628906 3.253906 8.023438 3.007812 8.484375 2.65625 C 9.171875 2.082031 9.671875 1.285156 9.984375 0.265625 C 9.390625 0.460938 8.757812 0.671875 8.09375 0.890625 C 7.425781 1.117188 6.851562 1.390625 6.375 1.703125 C 5.90625 2.023438 5.671875 2.40625 5.671875 2.84375 C 5.671875 3.019531 5.726562 3.191406 5.84375 3.359375 C 5.96875 3.523438 6.164062 3.609375 6.4375 3.609375 Z M 6.4375 3.609375 "/></g></g></g><g fill="#000000" fill-opacity="1"><g transform="translate(216.282084, 202.674713)"><g><path d="M 2.84375 18.109375 C 2.738281 18.109375 2.632812 18.085938 2.53125 18.046875 C 2.4375 18.015625 2.390625 17.925781 2.390625 17.78125 C 2.390625 16.070312 2.398438 14.347656 2.421875 12.609375 C 2.441406 10.878906 2.472656 9.140625 2.515625 7.390625 C 2.554688 5.628906 2.582031 3.867188 2.59375 2.109375 C 2.613281 0.347656 2.625 -1.425781 2.625 -3.21875 L 2.625 -5.140625 C 2.601562 -5.472656 2.59375 -5.800781 2.59375 -6.125 C 2.59375 -6.457031 2.59375 -6.78125 2.59375 -7.09375 C 2.582031 -6.9375 2.484375 -6.664062 2.296875 -6.28125 C 2.109375 -5.894531 1.890625 -5.472656 1.640625 -5.015625 C 1.390625 -4.566406 1.144531 -4.15625 0.90625 -3.78125 C 0.675781 -3.40625 0.503906 -3.148438 0.390625 -3.015625 C 0.265625 -2.898438 0.125 -2.84375 -0.03125 -2.84375 C -0.1875 -2.84375 -0.300781 -2.894531 -0.375 -3 C -0.457031 -3.101562 -0.5 -3.207031 -0.5 -3.3125 C -0.5 -3.445312 -0.46875 -3.546875 -0.40625 -3.609375 C 0.0390625 -4.367188 0.421875 -5.007812 0.734375 -5.53125 C 1.054688 -6.0625 1.332031 -6.59375 1.5625 -7.125 C 1.800781 -7.65625 2.039062 -8.296875 2.28125 -9.046875 C 2.351562 -9.179688 2.445312 -9.265625 2.5625 -9.296875 C 2.6875 -9.335938 2.796875 -9.359375 2.890625 -9.359375 C 3.066406 -9.359375 3.195312 -9.222656 3.28125 -8.953125 C 3.375 -8.691406 3.441406 -8.382812 3.484375 -8.03125 C 3.523438 -7.675781 3.554688 -7.351562 3.578125 -7.0625 C 3.953125 -7.4375 4.351562 -7.84375 4.78125 -8.28125 C 5.21875 -8.726562 5.660156 -9.113281 6.109375 -9.4375 C 6.566406 -9.757812 7.003906 -9.921875 7.421875 -9.921875 C 7.972656 -9.921875 8.457031 -9.71875 8.875 -9.3125 C 9.300781 -8.914062 9.679688 -8.40625 10.015625 -7.78125 C 10.347656 -7.164062 10.644531 -6.53125 10.90625 -5.875 C 11.175781 -5.226562 11.472656 -4.59375 11.796875 -3.96875 C 12.128906 -3.351562 12.5 -2.84375 12.90625 -2.4375 C 13.320312 -2.03125 13.804688 -1.828125 14.359375 -1.828125 C 14.640625 -1.828125 14.914062 -1.929688 15.1875 -2.140625 C 15.457031 -2.347656 15.722656 -2.578125 15.984375 -2.828125 C 16.242188 -3.085938 16.476562 -3.320312 16.6875 -3.53125 C 16.90625 -3.738281 17.082031 -3.84375 17.21875 -3.84375 C 17.382812 -3.84375 17.515625 -3.789062 17.609375 -3.6875 C 17.703125 -3.59375 17.75 -3.476562 17.75 -3.34375 C 17.75 -3.238281 17.722656 -3.128906 17.671875 -3.015625 C 17.253906 -2.328125 16.753906 -1.789062 16.171875 -1.40625 C 15.597656 -1.019531 14.992188 -0.828125 14.359375 -0.828125 C 13.691406 -0.828125 13.101562 -1.023438 12.59375 -1.421875 C 12.09375 -1.816406 11.648438 -2.3125 11.265625 -2.90625 C 10.890625 -3.507812 10.550781 -4.164062 10.25 -4.875 C 10 -5.488281 9.726562 -6.101562 9.4375 -6.71875 C 9.15625 -7.34375 8.851562 -7.863281 8.53125 -8.28125 C 8.21875 -8.707031 7.859375 -8.921875 7.453125 -8.921875 C 7.210938 -8.921875 6.910156 -8.785156 6.546875 -8.515625 C 6.179688 -8.253906 5.800781 -7.925781 5.40625 -7.53125 C 5.007812 -7.132812 4.65625 -6.757812 4.34375 -6.40625 C 4.03125 -6.050781 3.800781 -5.785156 3.65625 -5.609375 C 3.65625 -1.753906 3.628906 2.082031 3.578125 5.90625 C 3.535156 7.820312 3.503906 9.738281 3.484375 11.65625 C 3.460938 13.570312 3.453125 15.5 3.453125 17.4375 C 3.453125 17.613281 3.410156 17.769531 3.328125 17.90625 C 3.253906 18.039062 3.09375 18.109375 2.84375 18.109375 Z M 2.84375 18.109375 "/></g></g></g><g fill="#000000" fill-opacity="1"><g transform="translate(233.53474, 202.674713)"><g><path d="M 1.5 19.390625 C 0.789062 19.390625 0.257812 19.15625 -0.09375 18.6875 C -0.445312 18.226562 -0.679688 17.644531 -0.796875 16.9375 C -0.910156 16.238281 -0.96875 15.554688 -0.96875 14.890625 C -0.96875 13.722656 -0.742188 12.609375 -0.296875 11.546875 C 0.140625 10.484375 0.679688 9.441406 1.328125 8.421875 C 1.171875 7.515625 0.988281 6.503906 0.78125 5.390625 C 0.570312 4.273438 0.359375 3.132812 0.140625 1.96875 C -0.0664062 0.8125 -0.265625 -0.285156 -0.453125 -1.328125 C -0.640625 -2.367188 -0.796875 -3.265625 -0.921875 -4.015625 C -1.234375 -5.890625 -1.507812 -7.71875 -1.75 -9.5 C -2 -11.28125 -2.191406 -13.085938 -2.328125 -14.921875 C -2.390625 -15.609375 -2.351562 -16.3125 -2.21875 -17.03125 C -2.09375 -17.75 -1.890625 -18.421875 -1.609375 -19.046875 C -1.328125 -19.679688 -0.984375 -20.191406 -0.578125 -20.578125 C -0.171875 -20.960938 0.273438 -21.15625 0.765625 -21.15625 C 1.359375 -21.15625 1.847656 -20.929688 2.234375 -20.484375 C 2.617188 -20.046875 2.90625 -19.445312 3.09375 -18.6875 C 3.289062 -17.925781 3.429688 -17.0625 3.515625 -16.09375 C 3.597656 -15.132812 3.640625 -14.132812 3.640625 -13.09375 C 3.640625 -11.101562 3.394531 -9.222656 2.90625 -7.453125 C 2.425781 -5.691406 1.59375 -4.101562 0.40625 -2.6875 C 0.425781 -2.445312 0.476562 -2.070312 0.5625 -1.5625 C 0.65625 -1.050781 0.757812 -0.5 0.875 0.09375 C 1 0.695312 1.113281 1.25 1.21875 1.75 C 1.269531 2.101562 1.34375 2.539062 1.4375 3.0625 C 1.539062 3.582031 1.644531 4.125 1.75 4.6875 C 1.863281 5.25 1.960938 5.765625 2.046875 6.234375 C 2.140625 6.703125 2.207031 7.046875 2.25 7.265625 C 2.5625 6.734375 2.929688 6.113281 3.359375 5.40625 C 3.796875 4.695312 4.234375 3.984375 4.671875 3.265625 C 5.117188 2.546875 5.519531 1.910156 5.875 1.359375 C 6.507812 0.367188 7.097656 -0.550781 7.640625 -1.40625 C 8.179688 -2.257812 8.660156 -2.984375 9.078125 -3.578125 C 9.234375 -3.753906 9.390625 -3.84375 9.546875 -3.84375 C 9.703125 -3.84375 9.828125 -3.785156 9.921875 -3.671875 C 10.023438 -3.566406 10.078125 -3.457031 10.078125 -3.34375 C 10.078125 -3.195312 10.035156 -3.085938 9.953125 -3.015625 C 9.460938 -2.285156 8.882812 -1.410156 8.21875 -0.390625 C 7.5625 0.617188 6.882812 1.679688 6.1875 2.796875 C 5.488281 3.910156 4.816406 4.976562 4.171875 6 C 3.535156 7.019531 2.992188 7.914062 2.546875 8.6875 C 2.566406 8.882812 2.632812 9.226562 2.75 9.71875 C 2.863281 10.207031 2.960938 10.710938 3.046875 11.234375 C 3.140625 11.859375 3.226562 12.582031 3.3125 13.40625 C 3.40625 14.238281 3.453125 15.128906 3.453125 16.078125 C 3.453125 16.503906 3.398438 16.976562 3.296875 17.5 C 3.203125 18.03125 3.015625 18.476562 2.734375 18.84375 C 2.460938 19.207031 2.050781 19.390625 1.5 19.390625 Z M 0.09375 -3.984375 C 0.800781 -4.773438 1.394531 -5.945312 1.875 -7.5 C 2.351562 -9.0625 2.59375 -10.925781 2.59375 -13.09375 C 2.59375 -13.84375 2.566406 -14.625 2.515625 -15.4375 C 2.472656 -16.257812 2.378906 -17.03125 2.234375 -17.75 C 2.097656 -18.46875 1.910156 -19.046875 1.671875 -19.484375 C 1.441406 -19.929688 1.140625 -20.15625 0.765625 -20.15625 C 0.410156 -20.15625 0.0664062 -19.898438 -0.265625 -19.390625 C -0.597656 -18.890625 -0.863281 -18.238281 -1.0625 -17.4375 C -1.257812 -16.644531 -1.335938 -15.804688 -1.296875 -14.921875 C -1.273438 -14.367188 -1.21875 -13.632812 -1.125 -12.71875 C -1.039062 -11.800781 -0.925781 -10.8125 -0.78125 -9.75 C -0.632812 -8.6875 -0.488281 -7.644531 -0.34375 -6.625 C -0.195312 -5.613281 -0.0507812 -4.734375 0.09375 -3.984375 Z M 1.5 18.375 C 1.800781 18.375 2.015625 18.234375 2.140625 17.953125 C 2.265625 17.679688 2.34375 17.363281 2.375 17 C 2.40625 16.632812 2.421875 16.328125 2.421875 16.078125 C 2.421875 15.503906 2.382812 14.816406 2.3125 14.015625 C 2.25 13.222656 2.15625 12.4375 2.03125 11.65625 C 1.914062 10.875 1.800781 10.257812 1.6875 9.8125 C 1.207031 10.5625 0.8125 11.375 0.5 12.25 C 0.1875 13.125 0.03125 14.003906 0.03125 14.890625 C 0.03125 15.265625 0.0625 15.726562 0.125 16.28125 C 0.195312 16.832031 0.335938 17.316406 0.546875 17.734375 C 0.753906 18.160156 1.070312 18.375 1.5 18.375 Z M 1.5 18.375 "/></g></g></g><g fill="#000000" fill-opacity="1"><g transform="translate(243.076882, 202.674713)"><g><path d="M 4.78125 2.8125 C 4.019531 2.8125 3.335938 2.578125 2.734375 2.109375 C 2.128906 1.648438 1.585938 1.023438 1.109375 0.234375 C 0.628906 -0.554688 0.210938 -1.445312 -0.140625 -2.4375 C -0.492188 -3.4375 -0.800781 -4.476562 -1.0625 -5.5625 C -1.28125 -6.382812 -1.441406 -7.160156 -1.546875 -7.890625 C -1.660156 -8.617188 -1.742188 -9.347656 -1.796875 -10.078125 C -1.816406 -10.453125 -1.835938 -10.921875 -1.859375 -11.484375 C -1.878906 -12.046875 -1.890625 -12.617188 -1.890625 -13.203125 C -1.890625 -13.796875 -1.890625 -14.328125 -1.890625 -14.796875 C -1.890625 -15.492188 -1.867188 -16.273438 -1.828125 -17.140625 C -1.785156 -18.003906 -1.6875 -18.890625 -1.53125 -19.796875 C -1.414062 -20.421875 -1.253906 -21.023438 -1.046875 -21.609375 C -0.835938 -22.191406 -0.5625 -22.671875 -0.21875 -23.046875 C 0.125 -23.421875 0.550781 -23.609375 1.0625 -23.609375 C 1.570312 -23.609375 1.984375 -23.367188 2.296875 -22.890625 C 2.617188 -22.421875 2.863281 -21.804688 3.03125 -21.046875 C 3.195312 -20.296875 3.304688 -19.484375 3.359375 -18.609375 C 3.421875 -17.742188 3.453125 -16.914062 3.453125 -16.125 C 3.453125 -14.5 3.394531 -12.957031 3.28125 -11.5 C 3.175781 -10.039062 2.9375 -8.640625 2.5625 -7.296875 C 2.195312 -5.953125 1.585938 -4.625 0.734375 -3.3125 C 0.878906 -2.800781 1.078125 -2.25 1.328125 -1.65625 C 1.585938 -1.0625 1.890625 -0.503906 2.234375 0.015625 C 2.578125 0.535156 2.960938 0.960938 3.390625 1.296875 C 3.828125 1.628906 4.289062 1.796875 4.78125 1.796875 C 5.351562 1.796875 5.921875 1.601562 6.484375 1.21875 C 7.046875 0.84375 7.582031 0.363281 8.09375 -0.21875 C 8.601562 -0.800781 9.070312 -1.394531 9.5 -2 C 9.925781 -2.613281 10.296875 -3.148438 10.609375 -3.609375 C 10.703125 -3.765625 10.847656 -3.84375 11.046875 -3.84375 C 11.179688 -3.84375 11.296875 -3.796875 11.390625 -3.703125 C 11.492188 -3.617188 11.546875 -3.5 11.546875 -3.34375 C 11.546875 -3.257812 11.519531 -3.171875 11.46875 -3.078125 L 11.28125 -2.75 C 10.925781 -2.21875 10.53125 -1.632812 10.09375 -1 C 9.664062 -0.375 9.1875 0.226562 8.65625 0.8125 C 8.125 1.394531 7.535156 1.875 6.890625 2.25 C 6.253906 2.625 5.550781 2.8125 4.78125 2.8125 Z M 0.234375 -4.484375 C 0.960938 -5.785156 1.476562 -7.023438 1.78125 -8.203125 C 2.09375 -9.390625 2.28125 -10.617188 2.34375 -11.890625 C 2.414062 -13.160156 2.453125 -14.570312 2.453125 -16.125 C 2.453125 -16.625 2.425781 -17.234375 2.375 -17.953125 C 2.320312 -18.671875 2.25 -19.382812 2.15625 -20.09375 C 2.0625 -20.800781 1.925781 -21.390625 1.75 -21.859375 C 1.570312 -22.335938 1.34375 -22.578125 1.0625 -22.578125 C 0.789062 -22.578125 0.550781 -22.421875 0.34375 -22.109375 C 0.132812 -21.804688 -0.0351562 -21.414062 -0.171875 -20.9375 C -0.316406 -20.46875 -0.425781 -19.976562 -0.5 -19.46875 C -0.613281 -18.6875 -0.707031 -17.863281 -0.78125 -17 C -0.851562 -16.144531 -0.890625 -15.410156 -0.890625 -14.796875 C -0.890625 -13.128906 -0.820312 -11.40625 -0.6875 -9.625 C -0.5625 -7.851562 -0.253906 -6.140625 0.234375 -4.484375 Z M 0.234375 -4.484375 "/></g></g></g><g fill="#000000" fill-opacity="1"><g transform="translate(254.096119, 202.674713)"><g><path d="M 4.40625 -0.96875 C 3.257812 -0.96875 2.222656 -1.21875 1.296875 -1.71875 C 0.367188 -2.226562 -0.367188 -2.898438 -0.921875 -3.734375 C -1.472656 -4.578125 -1.75 -5.5 -1.75 -6.5 C -1.75 -7.738281 -1.472656 -8.71875 -0.921875 -9.4375 C -0.367188 -10.15625 0.359375 -10.515625 1.265625 -10.515625 C 1.898438 -10.515625 2.425781 -10.296875 2.84375 -9.859375 C 3.269531 -9.429688 3.484375 -8.910156 3.484375 -8.296875 C 3.484375 -7.765625 3.359375 -7.191406 3.109375 -6.578125 C 2.867188 -5.972656 2.5625 -5.378906 2.1875 -4.796875 C 1.8125 -4.222656 1.40625 -3.695312 0.96875 -3.21875 C 1.363281 -2.863281 1.835938 -2.566406 2.390625 -2.328125 C 2.941406 -2.097656 3.613281 -1.984375 4.40625 -1.984375 C 4.9375 -1.984375 5.460938 -2.140625 5.984375 -2.453125 C 6.503906 -2.765625 6.960938 -3.148438 7.359375 -3.609375 C 7.515625 -3.765625 7.660156 -3.84375 7.796875 -3.84375 C 7.953125 -3.84375 8.078125 -3.785156 8.171875 -3.671875 C 8.273438 -3.566406 8.328125 -3.457031 8.328125 -3.34375 C 8.328125 -3.195312 8.289062 -3.078125 8.21875 -2.984375 C 7.5625 -2.347656 6.953125 -1.851562 6.390625 -1.5 C 5.835938 -1.144531 5.175781 -0.96875 4.40625 -0.96875 Z M 0.265625 -3.875 C 0.535156 -4.226562 0.835938 -4.65625 1.171875 -5.15625 C 1.515625 -5.65625 1.8125 -6.179688 2.0625 -6.734375 C 2.320312 -7.285156 2.453125 -7.804688 2.453125 -8.296875 C 2.453125 -9.109375 2.054688 -9.515625 1.265625 -9.515625 C 0.753906 -9.515625 0.347656 -9.351562 0.046875 -9.03125 C -0.242188 -8.71875 -0.441406 -8.332031 -0.546875 -7.875 C -0.648438 -7.414062 -0.703125 -6.957031 -0.703125 -6.5 C -0.703125 -5.96875 -0.609375 -5.476562 -0.421875 -5.03125 C -0.234375 -4.59375 -0.00390625 -4.207031 0.265625 -3.875 Z M 0.265625 -3.875 "/></g></g></g><g fill="#000000" fill-opacity="1"><g transform="translate(261.895266, 202.674713)"><g><path d="M 5.875 13.828125 C 4.757812 13.828125 3.972656 13.429688 3.515625 12.640625 C 3.066406 11.859375 2.84375 10.882812 2.84375 9.71875 C 2.84375 8.769531 2.984375 7.785156 3.265625 6.765625 C 3.546875 5.742188 3.945312 4.789062 4.46875 3.90625 C 5 3.03125 5.617188 2.359375 6.328125 1.890625 C 6.265625 1.554688 6.203125 1.222656 6.140625 0.890625 C 6.085938 0.554688 6.019531 0.226562 5.9375 -0.09375 C 5.863281 -0.425781 5.785156 -0.757812 5.703125 -1.09375 C 5.617188 -1.425781 5.539062 -1.769531 5.46875 -2.125 C 4.988281 -1.65625 4.375 -1.25 3.625 -0.90625 C 2.882812 -0.570312 2.25 -0.40625 1.71875 -0.40625 C 0.925781 -0.40625 0.363281 -0.679688 0.03125 -1.234375 C -0.300781 -1.785156 -0.445312 -2.445312 -0.40625 -3.21875 C -0.351562 -3.96875 -0.128906 -4.722656 0.265625 -5.484375 C 0.660156 -6.253906 1.175781 -6.898438 1.8125 -7.421875 C 2.457031 -7.953125 3.171875 -8.21875 3.953125 -8.21875 C 4.648438 -8.21875 5.203125 -8.050781 5.609375 -7.71875 C 6.023438 -7.394531 6.332031 -6.984375 6.53125 -6.484375 C 6.726562 -5.984375 6.828125 -5.46875 6.828125 -4.9375 C 6.828125 -4.695312 6.769531 -4.375 6.65625 -3.96875 C 6.550781 -3.570312 6.429688 -3.253906 6.296875 -3.015625 C 6.390625 -2.679688 6.476562 -2.332031 6.5625 -1.96875 C 6.65625 -1.601562 6.742188 -1.222656 6.828125 -0.828125 C 6.898438 -0.429688 6.972656 -0.0507812 7.046875 0.3125 C 7.117188 0.675781 7.191406 1.023438 7.265625 1.359375 C 7.929688 0.828125 8.488281 0.316406 8.9375 -0.171875 C 9.382812 -0.671875 9.804688 -1.195312 10.203125 -1.75 C 10.609375 -2.3125 11.066406 -2.945312 11.578125 -3.65625 C 11.679688 -3.78125 11.820312 -3.84375 12 -3.84375 C 12.132812 -3.84375 12.25 -3.789062 12.34375 -3.6875 C 12.445312 -3.59375 12.5 -3.476562 12.5 -3.34375 C 12.5 -3.238281 12.488281 -3.175781 12.46875 -3.15625 L 12.375 -2.984375 C 11.664062 -1.960938 10.925781 -1.003906 10.15625 -0.109375 C 9.394531 0.785156 8.519531 1.628906 7.53125 2.421875 C 7.65625 2.910156 7.804688 3.554688 7.984375 4.359375 C 8.171875 5.160156 8.332031 6.007812 8.46875 6.90625 C 8.613281 7.800781 8.6875 8.648438 8.6875 9.453125 C 8.6875 10.265625 8.609375 11.003906 8.453125 11.671875 C 8.296875 12.335938 8.015625 12.863281 7.609375 13.25 C 7.203125 13.632812 6.625 13.828125 5.875 13.828125 Z M 1.71875 -1.421875 C 2.320312 -1.421875 2.929688 -1.597656 3.546875 -1.953125 C 4.171875 -2.304688 4.703125 -2.753906 5.140625 -3.296875 C 5.578125 -3.835938 5.796875 -4.40625 5.796875 -5 C 5.796875 -5.5625 5.632812 -6.066406 5.3125 -6.515625 C 5 -6.960938 4.546875 -7.1875 3.953125 -7.1875 C 3.398438 -7.1875 2.867188 -6.972656 2.359375 -6.546875 C 1.847656 -6.117188 1.429688 -5.597656 1.109375 -4.984375 C 0.785156 -4.378906 0.625 -3.789062 0.625 -3.21875 C 0.625 -2.726562 0.695312 -2.304688 0.84375 -1.953125 C 0.988281 -1.597656 1.28125 -1.421875 1.71875 -1.421875 Z M 5.875 12.796875 C 6.351562 12.796875 6.71875 12.632812 6.96875 12.3125 C 7.226562 12 7.40625 11.585938 7.5 11.078125 C 7.601562 10.566406 7.65625 10.023438 7.65625 9.453125 C 7.65625 8.960938 7.613281 8.40625 7.53125 7.78125 C 7.457031 7.164062 7.363281 6.535156 7.25 5.890625 C 7.144531 5.253906 7.03125 4.675781 6.90625 4.15625 C 6.789062 3.632812 6.695312 3.234375 6.625 2.953125 C 6.207031 3.191406 5.828125 3.570312 5.484375 4.09375 C 5.140625 4.613281 4.847656 5.195312 4.609375 5.84375 C 4.367188 6.5 4.1875 7.164062 4.0625 7.84375 C 3.9375 8.519531 3.875 9.144531 3.875 9.71875 C 3.875 10.5625 4.023438 11.285156 4.328125 11.890625 C 4.628906 12.492188 5.144531 12.796875 5.875 12.796875 Z M 5.875 12.796875 "/></g></g></g><g fill="#000000" fill-opacity="1"><g transform="translate(273.889402, 202.674713)"><g><path d="M 4.40625 -0.96875 C 3.257812 -0.96875 2.222656 -1.21875 1.296875 -1.71875 C 0.367188 -2.226562 -0.367188 -2.898438 -0.921875 -3.734375 C -1.472656 -4.578125 -1.75 -5.5 -1.75 -6.5 C -1.75 -7.738281 -1.472656 -8.71875 -0.921875 -9.4375 C -0.367188 -10.15625 0.359375 -10.515625 1.265625 -10.515625 C 1.898438 -10.515625 2.425781 -10.296875 2.84375 -9.859375 C 3.269531 -9.429688 3.484375 -8.910156 3.484375 -8.296875 C 3.484375 -7.765625 3.359375 -7.191406 3.109375 -6.578125 C 2.867188 -5.972656 2.5625 -5.378906 2.1875 -4.796875 C 1.8125 -4.222656 1.40625 -3.695312 0.96875 -3.21875 C 1.363281 -2.863281 1.835938 -2.566406 2.390625 -2.328125 C 2.941406 -2.097656 3.613281 -1.984375 4.40625 -1.984375 C 4.9375 -1.984375 5.460938 -2.140625 5.984375 -2.453125 C 6.503906 -2.765625 6.960938 -3.148438 7.359375 -3.609375 C 7.515625 -3.765625 7.660156 -3.84375 7.796875 -3.84375 C 7.953125 -3.84375 8.078125 -3.785156 8.171875 -3.671875 C 8.273438 -3.566406 8.328125 -3.457031 8.328125 -3.34375 C 8.328125 -3.195312 8.289062 -3.078125 8.21875 -2.984375 C 7.5625 -2.347656 6.953125 -1.851562 6.390625 -1.5 C 5.835938 -1.144531 5.175781 -0.96875 4.40625 -0.96875 Z M 0.265625 -3.875 C 0.535156 -4.226562 0.835938 -4.65625 1.171875 -5.15625 C 1.515625 -5.65625 1.8125 -6.179688 2.0625 -6.734375 C 2.320312 -7.285156 2.453125 -7.804688 2.453125 -8.296875 C 2.453125 -9.109375 2.054688 -9.515625 1.265625 -9.515625 C 0.753906 -9.515625 0.347656 -9.351562 0.046875 -9.03125 C -0.242188 -8.71875 -0.441406 -8.332031 -0.546875 -7.875 C -0.648438 -7.414062 -0.703125 -6.957031 -0.703125 -6.5 C -0.703125 -5.96875 -0.609375 -5.476562 -0.421875 -5.03125 C -0.234375 -4.59375 -0.00390625 -4.207031 0.265625 -3.875 Z M 0.265625 -3.875 "/></g></g></g></svg>